<?xml version="1.0" standalone="no"?>
<!DOCTYPE svg PUBLIC "-//W3C//DTD SVG 1.1//EN" "http://www.w3.org/Graphics/SVG/1.1/DTD/svg11.dtd" >
<svg xmlns="http://www.w3.org/2000/svg">
<metadata>
This is a custom SVG webfont generated by Font Squirrel.
Copyright   :  2004 Just Another Foundry All Rights Reserved
Designer    : Tim Ahrens
Foundry URL : httpjustanotherfoundrycom
</metadata>
<defs>
<font id="FacitSemibold" horiz-adv-x="1157" >
<font-face units-per-em="2048" ascent="1638" descent="-410" />
<missing-glyph horiz-adv-x="417" />
<glyph unicode=" "  horiz-adv-x="417" />
<glyph unicode="&#x09;" horiz-adv-x="417" />
<glyph unicode="&#xa0;" horiz-adv-x="417" />
<glyph unicode="!" horiz-adv-x="667" d="M221 137.5q0 65.5 43 109.5t111 44q66 0 109.5 -44t43.5 -109.5t-44 -109.5t-109.5 -44t-109.5 44t-44 109.5zM238 1413h274l-18 -962h-240z" />
<glyph unicode="&#x22;" horiz-adv-x="886" d="M143 1413h234l-8 -487h-217zM510 1413h235l-10 -487h-217z" />
<glyph unicode="#" d="M18 354v203h183l41 299h-156v201h190l50 356h221l-51 -356h247l52 356h221l-53 -356h149v-201h-182l-41 -299h155v-203h-188l-51 -354h-221l53 354h-250l-51 -354h-221l53 354h-150zM420 557h250l41 299h-250z" />
<glyph unicode="$" d="M80 182l135 195q135 -100 348 -101q219 0 219 156q0 70 -69.5 115t-170 74.5t-199.5 68.5t-169 123t-70 211q0 176 140 276q80 59 202 86l-2 181h271l-2 -170q199 -27 303 -107l-127 -190q-115 78 -305 78q-209 0 -209 -144q0 -63 69.5 -104t169 -71t199.5 -69.5 t170 -125.5t70 -218q0 -190 -152 -292q-78 -57 -188 -82l2 -185h-271l2 168q-241 18 -366 127z" />
<glyph unicode="%" horiz-adv-x="1863" d="M102 1020q0 223 84 319q76 88 226 88q139 0 211 -75q90 -90 90 -319.5t-92 -330.5q-76 -80 -218 -79q-139 0 -213 77q-88 91 -88 320zM242 27l1253 1484l150 -125l-1256 -1484zM293 1018q0 -135 22.5 -186.5t90.5 -51.5q72 0 94 55.5t22 194.5q0 137 -21.5 188.5 t-88.5 51.5q-74 0 -96.5 -56.5t-22.5 -195.5zM1151 381q0 227 84 321q74 88 223 89q137 0 213 -76q90 -92 90 -321.5t-92 -327.5q-76 -80 -217 -80t-213 75q-88 91 -88 320zM1341 379q0 -135 21.5 -185.5t91.5 -50.5q72 0 94.5 55.5t22.5 192.5t-21.5 188.5t-91.5 51.5 q-72 0 -94.5 -55.5t-22.5 -196.5z" />
<glyph unicode="&#x26;" horiz-adv-x="1380" d="M104 354q0 238 211 402q-119 147 -118 301q0 162 104 266q117 111 313.5 111t311.5 -111l-142 -166q-74 66 -184 66q-82 0 -120 -37t-38 -117q0 -94 53.5 -170t198.5 -225l215 -225q61 127 66 286h225q-2 -229 -141 -442l282 -293h-297l-120 125q-156 -150 -371 -150 q-213 0 -332 107q-117 98 -117 272zM340 367q0 -190 213 -191q133 0 227 92l-317 328q-123 -86 -123 -229z" />
<glyph unicode="'" horiz-adv-x="520" d="M143 1413h234l-8 -487h-217z" />
<glyph unicode="(" horiz-adv-x="704" d="M129 594q0 381 62.5 595t250.5 357l154 -182q-141 -115 -178 -264.5t-37 -508t37 -510t178 -261.5l-154 -182q-188 143 -250.5 359t-62.5 597z" />
<glyph unicode=")" horiz-adv-x="704" d="M109 -180q141 115 178 264t37 507.5t-37 510t-178 262.5l153 182q188 -141 250.5 -357t62.5 -599q0 -381 -62 -595t-251 -357z" />
<glyph unicode="*" horiz-adv-x="1060" d="M104 1182l58 186l276 -98l-2 297h191l-2 -297l274 94l59 -182l-278 -86l174 -238l-156 -115l-168 244l-165 -242l-158 113l176 238z" />
<glyph unicode="+" horiz-adv-x="1189" d="M113 440v222h358v397h248v-397h358v-222h-358v-397h-248v397h-358z" />
<glyph unicode="," horiz-adv-x="530" d="M76 -229q80 141 106 239q-76 37 -76 133q0 66 43.5 112t117 46t114.5 -47t41 -127q0 -164 -184 -442z" />
<glyph unicode="-" horiz-adv-x="667" d="M35 432v236h600v-236h-600z" />
<glyph unicode="." horiz-adv-x="530" d="M109 141q0 70 44 114t113.5 44t113.5 -44t44 -114q0 -68 -45 -112.5t-112.5 -44.5t-112.5 44.5t-45 112.5z" />
<glyph unicode="/" horiz-adv-x="940" d="M2 -180l690 1866l232 -87l-691 -1865z" />
<glyph unicode="0" d="M90 690q0 434 150 608q121 143 346 144q229 0 346 -144q135 -164 135 -575q0 -430 -149 -608q-121 -143 -351 -144q-223 0 -342 142q-135 163 -135 577zM358 688q0 -266 45.5 -378.5t169.5 -112.5q129 0 177.5 120.5t48.5 405.5q0 268 -45 381t-170 113 q-129 0 -177.5 -122t-48.5 -407z" />
<glyph unicode="1" d="M78 1120l411 293h287v-1184h277v-229h-889v229h352v922l-295 -217z" />
<glyph unicode="2" d="M111 1257q158 178 469 179q203 0 332.5 -91.5t129.5 -300.5q0 -106 -42 -188t-103 -135t-178 -129q-139 -90 -198.5 -136t-96.5 -103.5t-37 -129.5l649 4v-227h-921v168q0 104 19.5 178t75.5 139.5t124.5 117.5t197.5 134q133 84 189.5 146.5t56.5 161t-56 135.5t-159 37 q-180 0 -295 -117z" />
<glyph unicode="3" d="M88 119l133 180q104 -106 307 -106q117 0 176.5 47t59.5 166q0 121 -66.5 163.5t-220.5 42.5h-174v217h166q274 0 274 211q0 98 -54 138.5t-163 40.5q-195 0 -303 -103l-131 174q141 150 440 150q199 0 324 -80q154 -96 154 -289q0 -123 -60.5 -211t-177.5 -125 q127 -31 192.5 -122t65.5 -228q0 -215 -164 -324q-131 -86 -346 -86q-301 1 -432 144z" />
<glyph unicode="4" d="M78 272v230l330 911h254l-330 -907h293v526h239v-524h217v-236h-217v-272h-243v272h-543z" />
<glyph unicode="5" d="M127 113l129 180q109 -102 297 -103q96 0 147 37q80 59 80 230q0 158 -67 207q-49 37 -142 36q-129 0 -215 -92l-196 54l8 751h797v-225h-572l-8 -348q84 76 236 75q176 0 292 -100q135 -115 136 -350q0 -270 -177 -393q-137 -96 -333 -97q-113 0 -228.5 34t-183.5 104z " />
<glyph unicode="6" d="M104 686q0 219 28 362.5t108 237.5q131 154 397 154q276 0 405 -131l-131 -176q-100 90 -288 90q-72 0 -120 -18.5t-76 -48.5t-42 -96.5t-18.5 -134t-6.5 -188.5q84 139 297 140q172 0 283 -99q123 -113 123 -340q0 -231 -131 -350q-127 -113 -338 -113q-262 0 -381 168 q-109 150 -109 543zM373 422q0 -121 53 -179.5t170 -58.5q119 0 166 60.5t47 191.5q0 133 -45 190.5t-152 57.5q-239 0 -239 -262z" />
<glyph unicode="7" d="M90 1413h973v-231q-270 -586 -436 -1182h-281q162 580 447 1167h-482l-6 -219h-211z" />
<glyph unicode="8" d="M102 356q0 250 271 365q-248 104 -248 352q0 131 72.5 218t172 120t216.5 33q184 0 318 -88t134 -273q0 -240 -243 -354q264 -111 264 -369q0 -195 -139.5 -293t-337.5 -98q-125 0 -230.5 38t-177.5 128t-72 221zM346 379q0 -207 234 -207q236 0 235 207q0 59 -17.5 102 t-57.5 73t-71.5 44t-90.5 35q-55 -18 -89 -34.5t-71 -45.5t-54.5 -72t-17.5 -102zM369 1051q0 -55 15 -94t51 -66t62.5 -39t82.5 -31q55 18 84.5 31.5t64.5 39.5t50.5 65.5t15.5 97.5q0 188 -211 188q-100 0 -157.5 -41.5t-57.5 -150.5z" />
<glyph unicode="9" d="M94 975q0 231 131 350q125 113 340 113q258 0 379 -168q109 -152 109 -541q0 -221 -28 -364.5t-107 -237.5q-131 -154 -398 -154q-276 0 -405 131l131 177q100 -90 289 -91q72 0 119.5 18.5t75.5 48.5t42 96.5t18.5 134t6.5 188.5q-86 -139 -295 -139q-180 0 -285 98 q-123 111 -123 340zM348 977q0 -133 45 -190.5t152 -57.5q240 0 239 262q0 121 -52 179.5t-169 58.5q-121 0 -168 -60.5t-47 -191.5z" />
<glyph unicode=":" horiz-adv-x="567" d="M147 139q0 66 44.5 111t111.5 45q66 0 110 -45t44 -111q0 -68 -44 -111.5t-110 -43.5q-68 0 -112 43.5t-44 111.5zM147 825q0 68 44.5 112t111.5 44q66 0 110 -44t44 -112q0 -66 -44 -110.5t-110 -44.5q-68 0 -112 44.5t-44 110.5z" />
<glyph unicode=";" horiz-adv-x="534" d="M76 -229q82 160 104 239q-74 37 -74 129q0 68 43.5 113t112.5 45q72 0 114 -46t42 -122q0 -168 -185 -444zM106 831q0 68 44.5 113t112 45t111.5 -45t44 -113q0 -66 -44 -110.5t-112 -44.5q-66 0 -111 44.5t-45 110.5z" />
<glyph unicode="&#x3c;" horiz-adv-x="1189" d="M117 428v246l823 356l76 -215l-658 -262l658 -266l-76 -215z" />
<glyph unicode="=" horiz-adv-x="1189" d="M162 227v213h866v-213h-866zM162 659v215h866v-215h-866z" />
<glyph unicode="&#x3e;" horiz-adv-x="1189" d="M176 287l655 262l-655 266l76 213l823 -354v-246l-823 -356z" />
<glyph unicode="?" horiz-adv-x="980" d="M129 1303q156 129 383 129q143 0 258 -66q143 -86 143 -250q0 -86 -36.5 -154.5t-89 -109.5t-104.5 -75t-89 -70.5t-37 -75.5q0 -43 39 -99l-186 -94q-88 113 -88 211q0 86 54 154.5t120.5 105.5t121 86t54.5 105q0 125 -154 125q-145 0 -258 -95zM391 137q0 68 45 112 t110.5 44t110.5 -44t45 -112q0 -66 -45 -109.5t-110.5 -43.5t-110.5 43.5t-45 109.5z" />
<glyph unicode="@" horiz-adv-x="1759" d="M100 555q0 373 218.5 593t582.5 220q352 0 554 -203.5t202 -517.5q0 -221 -100.5 -364.5t-276.5 -143.5q-174 0 -215 148q-98 -152 -281 -152q-121 0 -198.5 69.5t-77.5 188.5q0 264 410 264h90v29q0 68 -29 93.5t-107 25.5q-139 0 -213 -66l-110 148q113 104 332 104 q178 0 265 -80t87 -249v-164q0 -184 84 -185q55 0 89 78t34 217q0 264 -134.5 409.5t-412.5 145.5q-281 0 -429.5 -151.5t-148.5 -456.5q0 -299 155 -448.5t480 -149.5q371 0 578 188l121 -133q-115 -115 -298.5 -183.5t-414.5 -68.5q-408 0 -622 215t-214 580zM750 399 q0 -82 73 -82q63 0 120.5 54.5t66.5 132.5h-95q-84 0 -124.5 -18.5t-40.5 -86.5z" />
<glyph unicode="A" horiz-adv-x="1245" d="M2 0l463 1413h319l459 -1413h-280l-95 309h-497l-97 -309h-272zM430 524h381l-190 621z" />
<glyph unicode="B" horiz-adv-x="1234" d="M158 0v1413h544q193 0 302 -84q106 -84 106 -252q0 -127 -59.5 -215t-180.5 -119q266 -41 267 -331q0 -207 -136 -314q-121 -98 -339 -98h-504zM414 215h229q115 0 166 45q53 49 53 166q0 111 -50 150.5t-161 39.5h-237v-401zM414 819h176q117 0 180.5 48t63.5 167 q0 96 -43 133q-37 31 -129 31h-248v-379z" />
<glyph unicode="C" horiz-adv-x="1173" d="M100 696q0 414 170 594q141 147 406 148q276 0 418 -158l-146 -178q-113 106 -282 106q-160 0 -224 -94q-68 -100 -67 -420q0 -317 80 -415q61 -76 186 -76q180 0 315 151l156 -159q-180 -219 -475 -220q-240 0 -371 136q-166 167 -166 585z" />
<glyph unicode="D" horiz-adv-x="1347" d="M158 0v1413h516q279 0 416 -131q88 -84 122.5 -220t34.5 -345q0 -203 -35.5 -348.5t-134.5 -237.5q-141 -131 -395 -131h-524zM420 229h244q154 0 227 80q82 90 82 398q0 315 -82 403q-72 74 -227 74h-244v-955z" />
<glyph unicode="E" horiz-adv-x="1085" d="M158 0v1413h809v-223h-551v-361h502v-223h-502v-383h559v-223h-817z" />
<glyph unicode="F" horiz-adv-x="1042" d="M158 0v1413h809v-231h-547v-373h498v-231h-498v-578h-262z" />
<glyph unicode="G" horiz-adv-x="1327" d="M100 686q0 211 36 354.5t130 239.5q150 154 453 154q301 0 455 -148l-150 -186q-125 106 -328 106q-172 0 -241 -84q-41 -49 -59.5 -139t-18.5 -276q0 -203 20.5 -298.5t63.5 -138.5q76 -76 250 -75q137 0 235 28v338h-270v219h514v-714q-207 -86 -469 -86 q-313 0 -459 149q-94 94 -128 228t-34 329z" />
<glyph unicode="H" horiz-adv-x="1374" d="M158 0v1413h260v-575h538v575h263v-1413h-263v604h-538v-604h-260z" />
<glyph unicode="I" horiz-adv-x="575" d="M158 0v1413h260v-1413h-260z" />
<glyph unicode="J" horiz-adv-x="610" d="M-172 -410l43 230q49 -18 123 -19q119 0 159 65.5t40 217.5v1329h262v-1323q0 -526 -461 -526q-105 -1 -166 26z" />
<glyph unicode="K" horiz-adv-x="1296" d="M158 0v1413h260v-565h133l397 565h303l-477 -684l512 -729h-315l-424 600h-129v-600h-260z" />
<glyph unicode="L" horiz-adv-x="1007" d="M158 0v1413h260v-1180h538v-233h-798z" />
<glyph unicode="M" horiz-adv-x="1759" d="M119 0l82 1413h358l322 -983l325 983h355l79 -1413h-262l-43 1118l-336 -1048h-243l-334 1048l-45 -1118h-258z" />
<glyph unicode="N" horiz-adv-x="1445" d="M158 0v1413h338l548 -1061l-8 1061h254v-1413h-338l-551 1059l9 -1059h-252z" />
<glyph unicode="O" horiz-adv-x="1398" d="M100 692q0 410 168 588q152 162 443 162q289 0 434 -156q154 -170 153 -567q0 -412 -168 -588q-154 -160 -442 -160q-291 0 -434 156q-154 168 -154 565zM381 705q0 -340 86 -435q72 -78 227 -77q158 0 236 88q49 55 69.5 153t20.5 277q0 334 -88 430q-74 80 -227 80 q-158 0 -236 -91q-49 -57 -68.5 -152t-19.5 -273z" />
<glyph unicode="P" horiz-adv-x="1206" d="M158 0v1413h508q205 0 319 -84q147 -111 148 -377q0 -274 -150 -385q-117 -88 -326 -88h-239v-479h-260zM418 707h239q111 0 154 45q49 47 49 194q0 154 -55 203q-41 37 -158 37h-229v-479z" />
<glyph unicode="Q" horiz-adv-x="1398" d="M100 690q0 414 168 590q152 162 441 162q291 0 436 -156q154 -168 153 -565q0 -401 -155 -578l184 -198l-201 -187l-223 240q-100 -27 -213 -27q-291 0 -436 156q-154 168 -154 563zM381 700q0 -336 86 -430q72 -78 225 -77q162 0 238 88q49 55 69.5 153t20.5 277 q0 334 -88 430q-74 80 -225 80q-160 0 -238 -88q-49 -55 -68.5 -155t-19.5 -278z" />
<glyph unicode="R" horiz-adv-x="1253" d="M158 0v1413h526q203 0 320 -74q145 -94 145 -313q0 -319 -281 -389q129 -29 186.5 -168t106.5 -469h-276q-55 324 -101.5 425t-156.5 101h-209v-526h-260zM418 750h168q150 0 219 50t69 191q0 121 -47 162q-41 35 -151 35h-258v-438z" />
<glyph unicode="S" horiz-adv-x="1079" d="M51 117l131 192q135 -109 344 -108q100 0 157.5 40t57.5 146q0 80 -68.5 130t-166.5 84t-196.5 76t-167 132t-68.5 225q0 184 145 295q145 109 350 109q106 0 218 -31t186 -90l-125 -189q-123 84 -307 84q-98 0 -150.5 -36.5t-52.5 -133.5q0 -53 37 -92t95 -64.5t130 -49 t143.5 -57.5t130 -79t95.5 -122.5t37 -180.5q0 -215 -164 -325q-143 -96 -346 -97q-123 0 -247 35t-198 107z" />
<glyph unicode="T" horiz-adv-x="1099" d="M23 1180v233h1056v-233h-397v-1180h-262v1180h-397z" />
<glyph unicode="U" horiz-adv-x="1382" d="M158 498v915h262v-913q0 -66 3 -104t18.5 -80t44 -63.5t79.5 -35.5t127 -14q174 0 223.5 67.5t49.5 231.5v911h262v-905q0 -242 -97 -361q-137 -172 -448 -172q-297 0 -426 158q-98 119 -98 365z" />
<glyph unicode="V" horiz-adv-x="1251" d="M16 1413h283l330 -1120l332 1120h274l-463 -1413h-297z" />
<glyph unicode="W" horiz-adv-x="1843" d="M33 1413h264l225 -1106l262 1067h279l262 -1067l225 1106h262l-329 -1413h-303l-260 1057l-265 -1057h-303z" />
<glyph unicode="X" horiz-adv-x="1259" d="M20 0l443 731l-408 682h307l273 -504l266 504h305l-405 -682l438 -731h-309l-301 547l-301 -547h-308z" />
<glyph unicode="Y" horiz-adv-x="1128" d="M-6 1413h301l268 -606l275 606h299l-447 -872v-541h-262v541z" />
<glyph unicode="Z" horiz-adv-x="1118" d="M68 0v221l637 959l-617 -2v231h930v-223l-637 -957h655v-229h-968z" />
<glyph unicode="[" horiz-adv-x="716" d="M158 -305v1796h452v-207h-207v-1384h207v-205h-452z" />
<glyph unicode="\" horiz-adv-x="944" d="M16 1581l234 88l692 -1849l-231 -86z" />
<glyph unicode="]" horiz-adv-x="716" d="M109 -98h206v1382h-206v207h452v-1798h-452v209z" />
<glyph unicode="^" horiz-adv-x="1189" d="M111 698l360 824h248l360 -824l-219 -77l-266 657l-266 -657z" />
<glyph unicode="_" horiz-adv-x="858" d="M0 -90h858v-229h-858v229z" />
<glyph unicode="`" horiz-adv-x="409" d="M-76 1507l164 140l315 -383l-141 -127z" />
<glyph unicode="a" horiz-adv-x="1050" d="M61 287q0 170 123 256t361 86h129v39q0 106 -40 147t-142 41q-158 0 -254 -98l-129 149q133 147 395 148q209 0 309 -90.5t100 -294.5v-670h-225v150q-106 -174 -317 -175q-135 0 -224 82q-86 83 -86 230zM309 299q0 -129 105 -129q92 0 174 77t88 208h-150 q-115 0 -166 -31t-51 -125z" />
<glyph unicode="b" horiz-adv-x="1165" d="M147 0v1567h254v-664q102 154 306 154q106 0 180 -43t110.5 -121t51 -163t14.5 -191q0 -559 -395 -559q-193 0 -293 141l-4 -121h-224zM393 481q0 -145 68 -223q61 -66 155 -65q111 0 149 81.5t38 243.5q0 156 -34 237t-130 81q-94 0 -162 -78q-84 -99 -84 -277z" />
<glyph unicode="c" horiz-adv-x="989" d="M104 504q0 293 134 434q117 121 329 121q217 0 336 -121l-143 -172q-78 70 -189 70q-121 0 -160.5 -72t-39.5 -244q0 -170 35.5 -245.5t136.5 -75.5q127 0 223 108l152 -157q-139 -170 -388 -170q-203 0 -311 124q-115 132 -115 400z" />
<glyph unicode="d" horiz-adv-x="1171" d="M104 502q0 309 129 440q106 113 293 113q166 0 244 -94v606h254v-1567h-240l-2 156q-51 -86 -138 -133.5t-185 -47.5q-141 0 -236 101q-119 133 -119 426zM373 512q0 -172 31.5 -244.5t115.5 -72.5t158 81q102 119 102 302q0 141 -67 208q-55 53 -152 54 q-113 0 -150.5 -76t-37.5 -252z" />
<glyph unicode="e" horiz-adv-x="1105" d="M104 489q0 293 127 435q121 135 344.5 135t324.5 -127t101 -338q0 -57 -10 -133l-633 -4q2 -143 43 -209t168 -66q162 0 289 117l129 -152q-164 -170 -424 -170q-207 0 -327 111q-132 122 -132 401zM365 639h385q0 117 -37 171t-144 54q-111 0 -155.5 -57t-48.5 -168z " />
<glyph unicode="f" horiz-adv-x="804" d="M66 784v222h167v65q0 195 100.5 320t315.5 125q158 0 240 -60l-86 -194q-59 33 -148 32q-100 0 -134 -51t-34 -174v-63h254v-222h-254v-784h-254v784h-167z" />
<glyph unicode="g" horiz-adv-x="1171" d="M104 514q0 285 121 420q111 121 289 121q193 0 287 -135l4 112h219v-1042q0 -96 -23.5 -176t-78 -151t-157.5 -110.5t-251 -39.5q-256 0 -395 118l125 185q111 -86 282 -86q150 0 200 60t50 194v172q-100 -168 -311 -168q-168 0 -260 121q-101 124 -101 405zM373 510 q0 -166 32.5 -236.5t120.5 -70.5q92 0 160 80q94 109 94 288q0 139 -69 211q-59 59 -152 60q-109 0 -147.5 -78t-38.5 -254z" />
<glyph unicode="h" horiz-adv-x="1146" d="M147 0v1567h254v-693q37 82 119 133.5t189 51.5q143 0 222 -93.5t79 -263.5v-702h-254v662q0 84 -24.5 124.5t-86.5 40.5q-100 0 -172 -110.5t-72 -333.5v-383h-254z" />
<glyph unicode="i" horiz-adv-x="548" d="M121 1378q0 66 44 111t109.5 45t109.5 -45t44 -111q0 -68 -44 -111.5t-109.5 -43.5t-109.5 43.5t-44 111.5zM147 0v1032h254v-1032h-254z" />
<glyph unicode="j" horiz-adv-x="557" d="M-119 -461l39 223q35 -12 88 -12q92 0 120 38t28 138v1106h254v-1104q0 -193 -96.5 -301t-295.5 -108q-78 0 -137 20zM129 1378q0 66 44 111t109.5 45t109.5 -45t44 -111q0 -68 -44 -111.5t-109.5 -43.5t-109.5 43.5t-44 111.5z" />
<glyph unicode="k" horiz-adv-x="1093" d="M147 0v1567h254v-914h84l248 379h301l-348 -493l383 -539h-317l-273 410h-78v-410h-254z" />
<glyph unicode="l" horiz-adv-x="548" d="M147 0v1567h254v-1567h-254z" />
<glyph unicode="m" horiz-adv-x="1724" d="M147 0v1032h240v-178q88 205 309 205q219 0 277 -211q45 98 127 154.5t192 56.5q139 0 216 -93.5t77 -263.5v-702h-252v651q0 90 -23.5 133t-82.5 43q-98 0 -166 -109.5t-68 -326.5v-391h-254v655q0 86 -21.5 129t-82.5 43q-98 0 -166 -109.5t-68 -326.5v-391h-254z" />
<glyph unicode="n" horiz-adv-x="1146" d="M147 0v1032h240v-180q94 207 320 207q145 0 224 -94.5t79 -262.5v-702h-254v651q0 92 -24.5 134t-86.5 42q-104 0 -174 -111.5t-70 -326.5v-389h-254z" />
<glyph unicode="o" horiz-adv-x="1142" d="M104 498q0 305 132 436q123 127 348 127q207 0 329 -119q70 -70 97.5 -166t27.5 -244q0 -150 -28.5 -251t-100.5 -175q-127 -131 -346 -131q-211 0 -334 119q-70 70 -97.5 165.5t-27.5 238.5zM365 510q0 -203 61 -272q45 -49 141 -50q102 0 148 58q63 76 63 278 q0 205 -61 273q-45 51 -142 51q-100 0 -147 -55q-63 -78 -63 -283z" />
<glyph unicode="p" horiz-adv-x="1171" d="M147 -481v1513h242l2 -153q51 84 136 132t184 48q141 0 227 -90q131 -131 131 -437q0 -332 -147 -460q-104 -94 -271 -95q-156 0 -250 95v-553h-254zM393 449q0 -135 53 -195q57 -63 166 -64q104 0 146.5 75t42.5 259q0 168 -34 240t-114 72q-102 0 -174 -95 q-86 -108 -86 -292z" />
<glyph unicode="q" horiz-adv-x="1169" d="M104 500q0 311 125 444q104 111 275 111q203 0 295 -142l4 119h221v-1513h-254v614q-51 -74 -133 -116t-174 -42q-137 0 -234 97q-125 125 -125 428zM371 500q0 -160 31.5 -232.5t126 -72.5t163.5 81q86 100 86 275q0 145 -67 219q-70 70 -162 70q-102 0 -140 -78 t-38 -262z" />
<glyph unicode="r" horiz-adv-x="817" d="M147 0v1032h242l-2 -180q86 207 279 207q68 0 116 -25l-49 -239q-29 16 -86 16q-125 0 -185.5 -125t-60.5 -317v-369h-254z" />
<glyph unicode="s" horiz-adv-x="890" d="M53 104l125 162q92 -92 254 -92q156 0 156 111q0 49 -53.5 81.5t-128 55t-150.5 54.5t-129 100.5t-53 168.5q0 150 114.5 230t290.5 80q219 0 328 -115l-125 -158q-92 74 -223 74q-139 0 -140 -96q0 -45 52.5 -75t127 -53.5t150.5 -56t128 -102.5t52 -174 q0 -166 -120.5 -244t-296.5 -78q-248 0 -359 127z" />
<glyph unicode="t" horiz-adv-x="874" d="M61 793v223h168v291l254 24v-315h285v-223h-285v-412q0 -102 22.5 -137t108.5 -35q76 0 148 16l18 -213q-92 -25 -211 -24q-197 0 -268.5 89t-71.5 288v428h-168z" />
<glyph unicode="u" horiz-adv-x="1144" d="M147 332v700h254v-655q0 -174 111 -174q96 0 163.5 108.5t67.5 321.5v399h254v-1032h-235v180q-90 -205 -316 -205q-147 0 -223 92.5t-76 264.5z" />
<glyph unicode="v" horiz-adv-x="1034" d="M33 1032h274l215 -764l213 764h266l-342 -1032h-288z" />
<glyph unicode="w" horiz-adv-x="1536" d="M39 1032h258l160 -745l178 723h270l180 -721l158 743h254l-268 -1032h-281l-182 725l-184 -725h-285z" />
<glyph unicode="x" horiz-adv-x="1064" d="M39 0l328 535l-299 497h288l183 -332l178 332h287l-293 -497l315 -535h-291l-203 358l-204 -358h-289z" />
<glyph unicode="y" horiz-adv-x="1060" d="M33 1032h270l242 -864l219 864h264l-285 -966q-80 -270 -197.5 -410.5t-293.5 -140.5q-113 0 -178 43l82 209q43 -23 96 -23q82 0 135 63.5t98 212.5h-131z" />
<glyph unicode="z" horiz-adv-x="942" d="M82 0v211l450 592l-432 -2v221h740v-211l-451 -592h465v-219h-772z" />
<glyph unicode="{" horiz-adv-x="749" d="M10 483v217q113 4 154 44t41 165v277q0 143 80 224t219 81h139v-223h-76q-80 0 -102.5 -30t-22.5 -105v-250q0 -242 -180 -291q180 -47 180 -289v-252q0 -76 23.5 -107.5t101.5 -31.5h76v-217h-139q-139 0 -219 77.5t-80 219.5v284q0 123 -42 163t-153 44z" />
<glyph unicode="|" horiz-adv-x="569" d="M158 -481v2048h256v-2048h-256z" />
<glyph unicode="}" horiz-adv-x="749" d="M109 -84h75q78 0 100.5 29.5t22.5 107.5v248q0 244 182 291q-182 51 -182 291v252q0 76 -22.5 106.5t-100.5 30.5h-75v217h139q139 0 219 -77t80 -218v-285q0 -123 41 -162.5t151 -44.5v-217q-111 -4 -151.5 -44t-40.5 -167v-274q0 -143 -80 -224t-219 -81h-139v221z" />
<glyph unicode="~" horiz-adv-x="1189" d="M92 551q76 86 146.5 131t160.5 45q84 0 215 -62.5t185 -62.5q76 0 159 96l140 -147q-80 -88 -148.5 -132t-158.5 -44q-86 0 -216.5 61.5t-183.5 61.5q-78 0 -160 -95z" />
<glyph unicode="&#xa1;" horiz-adv-x="667" d="M139 1120.5q0 65.5 44 109.5t109.5 44t109.5 -44t44 -109.5t-43 -109.5t-110 -44q-66 0 -110 44t-44 109.5zM156 -156l18 963h240l16 -963h-274z" />
<glyph unicode="&#xa2;" d="M117 719q0 315 131 469q88 104 235 141l-2 238h271l-2 -224q188 -25 297 -135l-154 -176q-94 88 -242 88q-158 0 -207 -88t-49 -301q0 -219 45 -309t178 -90q174 0 287 139l164 -166q-125 -150 -319 -186l2 -232h-271l2 232q-158 35 -243 145q-123 150 -123 455z" />
<glyph unicode="&#xa3;" d="M98 0v219h148v375h-148v219h148v102q0 98 23.5 184.5t75.5 163t149.5 122t230.5 45.5q225 0 342 -119l-149 -174q-72 72 -201 71q-131 0 -170 -70.5t-39 -230.5v-94h315v-219h-315v-375h588v-219h-998z" />
<glyph unicode="&#xa4;" d="M0 1151l158 158l186 -187q104 55 238 56q135 0 229 -54l184 183l158 -156l-188 -184q51 -98 51 -226q0 -129 -53 -229l194 -188l-158 -156l-190 188q-96 -53 -233.5 -53t-227.5 51l-188 -190l-158 158l191 190q-51 92 -51.5 223t51.5 230zM360 741q0 -238 218 -237 q219 0 219 237q0 233 -217 234q-220 -1 -220 -234z" />
<glyph unicode="&#xa5;" d="M-6 1413h299l285 -604l294 604h293l-315 -577h223v-220h-344l-27 -49v-75h371v-220h-371v-272h-260v272h-348v220h348v75l-26 49h-322v220h205z" />
<glyph unicode="&#xa6;" horiz-adv-x="569" d="M158 291h256v-772h-256v772zM158 793v774h256v-774h-256z" />
<glyph unicode="&#xa7;" horiz-adv-x="1021" d="M51 657q0 182 144 299q-74 80 -74 199q0 156 126 239t306 83q221 0 346 -105l-108 -166q-94 74 -259 74q-174 0 -174 -125q0 -51 60.5 -87t147.5 -65.5t174 -69.5t147.5 -124t60.5 -207q0 -182 -139 -297q76 -80 76 -201q0 -154 -132 -235.5t-302 -81.5q-229 0 -367 111 l111 170q111 -84 274 -84q184 0 184 127q0 53 -62.5 89t-150.5 63.5t-176 65.5t-150.5 121.5t-62.5 206.5zM276 672q0 -43 16.5 -76t60.5 -60.5t71 -41t99 -39.5l96 -35q102 80 102 170q0 43 -17.5 75.5t-58.5 59.5t-71.5 41t-98 38.5t-94.5 37.5q-105 -82 -105 -170z" />
<glyph unicode="&#xa8;" horiz-adv-x="409" d="M-131 1354q0 57 38 96t93 39q57 0 96 -38t39 -97q0 -55 -40 -93t-95 -38t-93 38t-38 93zM274 1354q0 59 37 97t94.5 38t96.5 -38t39 -97q0 -55 -40 -93t-95 -38q-57 0 -94.5 38t-37.5 93z" />
<glyph unicode="&#xa9;" horiz-adv-x="1648" d="M100 707q0 324 191.5 540.5t533.5 216.5q338 0 529.5 -217t191.5 -542q0 -324 -192.5 -540t-530.5 -216q-227 0 -394 104.5t-248 273.5t-81 380zM303 702q0 -252 131 -401t391 -149q258 0 387 149.5t129 403.5q0 256 -127 406.5t-385 150.5q-260 0 -393 -153t-133 -407z M457 692q0 203 96 314q102 121 299 120q182 0 283 -92l-131 -178q-57 49 -158 49q-76 0 -101.5 -41t-25.5 -157q0 -123 25.5 -165t89.5 -42q96 0 170 69l149 -155q-129 -135 -330 -135q-160 0 -258 94q-108 106 -108 319z" />
<glyph unicode="&#xaa;" horiz-adv-x="684" d="M51 1176q0 104 90 155q74 41 207 41h66v14q0 45 -21.5 61.5t-75.5 16.5q-90 0 -147 -49l-90 103q82 84 246 84q133 0 195.5 -52.5t62.5 -173.5v-366h-158l-2 71q-66 -86 -182 -86q-82 0 -138 45q-53 48 -53 136zM92 766v145h492v-145h-492zM225 1180q0 -51 51 -52 q41 0 87.5 38t52.5 91h-74q-63 0 -90 -14t-27 -63z" />
<glyph unicode="&#xab;" horiz-adv-x="1093" d="M39 551l346 438l160 -125l-242 -313l242 -311l-160 -127zM522 551l346 438l160 -125l-242 -313l242 -311l-160 -127z" />
<glyph unicode="&#xac;" horiz-adv-x="1189" d="M137 555v221h891v-629h-246v408h-645z" />
<glyph unicode="&#xad;" horiz-adv-x="667" d="M35 432v236h600v-236h-600z" />
<glyph unicode="&#xae;" horiz-adv-x="1212" d="M104 1208q0 219 139.5 366.5t362.5 147.5t363.5 -147.5t140.5 -366.5t-141.5 -366.5t-364.5 -147.5q-221 0 -360.5 147.5t-139.5 366.5zM260 1208q0 -164 92 -262t252 -98q162 0 255 98t93 262t-92 263.5t-252 99.5q-162 0 -255 -99.5t-93 -263.5zM389 948v518h248 q205 0 205 -153q0 -117 -109 -146q57 -10 75.5 -54t31.5 -165h-156q-12 96 -24.5 127t-43.5 31h-75v-158h-152zM541 1229h45q53 0 76.5 13t23.5 50q0 29 -13.5 38t-49.5 9h-82v-110z" />
<glyph unicode="&#xaf;" horiz-adv-x="409" d="M-113 1243v199h635v-199h-635z" />
<glyph unicode="&#xb0;" horiz-adv-x="950" d="M109 1135q0 166 99 269t271 103q174 0 269.5 -98t95.5 -260q0 -166 -99.5 -268.5t-273.5 -102.5q-172 0 -267 97.5t-95 259.5zM322 1135q0 -74 37.5 -123t111.5 -49q78 0 118 53t40 133q0 76 -37 124t-113 48q-78 0 -117.5 -53t-39.5 -133z" />
<glyph unicode="&#xb1;" horiz-adv-x="1189" d="M184 72v202h822v-202h-822zM184 653v207h299v279h224v-279h299v-207h-299v-286h-224v286h-299z" />
<glyph unicode="&#xb2;" horiz-adv-x="753" d="M74 1698q98 109 297 108q127 0 207.5 -53t80.5 -174q0 -88 -46 -140.5t-144 -105.5q-113 -59 -149.5 -89t-36.5 -73l370 3v-164h-571v123q0 109 52 168t196 135q57 31 77.5 44t41 38.5t20.5 56.5q0 74 -113 74q-102 0 -168 -64z" />
<glyph unicode="&#xb3;" horiz-adv-x="753" d="M63 1075l95 125q63 -51 178 -51q123 0 123 94q0 51 -34 69.5t-114 18.5h-114v152h110q141 0 142 90q0 43 -28 60.5t-85 17.5q-117 0 -176 -49l-92 122q84 82 274 82q127 0 209 -49q90 -57 90 -160q0 -137 -139 -184q150 -39 149 -186q0 -119 -92 -176q-84 -55 -227 -56 q-189 0 -269 80z" />
<glyph unicode="&#xb4;" horiz-adv-x="409" d="M-8 1264l317 383l164 -140l-338 -370z" />
<glyph unicode="&#xb5;" horiz-adv-x="1144" d="M147 -481v1513h254v-657q0 -170 111 -170q96 0 163.5 111.5t67.5 324.5v391h254v-1032h-237l4 180q-82 -203 -303 -203q-43 0 -76 7l16 -465h-254z" />
<glyph unicode="&#xb6;" horiz-adv-x="1599" d="M74 969q0 125 25.5 216t64.5 142t101.5 81t119.5 38t135 8h924v-1935h-246v1712h-223v-1712h-246v977h-201q-76 0 -130 7t-120.5 33.5t-106.5 75.5t-68.5 139.5t-28.5 217.5zM326 973q0 -156 50 -203t173 -47h180v504h-188q-125 0 -170 -59.5t-45 -194.5z" />
<glyph unicode="&#xb7;" horiz-adv-x="530" d="M109 550.5q0 67.5 44 113t113 45.5q66 0 112 -45.5t46 -113t-46 -112.5t-112 -45q-68 0 -112.5 45t-44.5 112.5z" />
<glyph unicode="&#xb8;" horiz-adv-x="409" d="M-109 -369l107 111q51 -70 115 -70q74 0 73 68q0 70 -127 104l19 191h166l-11 -119q133 -57 134 -176q0 -96 -63.5 -160.5t-178.5 -64.5q-144 -1 -234 116z" />
<glyph unicode="&#xb9;" horiz-adv-x="753" d="M53 1618l246 174h209v-616h160v-166h-557v166h206v426l-159 -115z" />
<glyph unicode="&#xba;" horiz-adv-x="735" d="M74 1290q0 160 84 242q78 72 215 72q125 0 200 -62q86 -72 86 -235q0 -160 -86 -240q-76 -72 -215 -72q-127 0 -200 64q-84 69 -84 231zM119 766v145h499v-145h-499zM266 1290q0 -90 29 -119q20 -20 67 -20q49 0 76 27q27 33 27 131q0 96 -33 123q-23 16 -61 16 q-49 0 -72 -23q-33 -33 -33 -135z" />
<glyph unicode="&#xbb;" horiz-adv-x="1093" d="M68 236l241 315l-241 311l159 127l346 -438l-346 -438zM551 236l240 315l-240 311l158 127l348 -438l-348 -438z" />
<glyph unicode="&#xbc;" horiz-adv-x="1884" d="M109 1249l221 164h211v-612h149v-164h-528v164h194v430l-147 -115zM242 27l1253 1484l150 -125l-1256 -1484zM1163 137v160l166 479h176l-166 -477h140v272h168v-270h114v-164h-114v-137h-170v137h-314z" />
<glyph unicode="&#xbd;" horiz-adv-x="1884" d="M109 1249l221 164h211v-612h149v-164h-528v164h194v430l-147 -115zM242 27l1253 1484l150 -125l-1256 -1484zM1178 684q96 106 282 107q123 0 201 -52.5t78 -173.5q0 -88 -44 -140t-139 -103q-109 -61 -141.5 -91t-32.5 -73l351 2v-160h-547v119q0 106 50 166.5 t185 136.5q49 27 73 42t41 40.5t17 56.5q0 74 -104 74q-96 0 -160 -64z" />
<glyph unicode="&#xbe;" horiz-adv-x="1884" d="M102 702l93 123q59 -51 174 -51q127 0 127 94q0 51 -35 69.5t-113 18.5h-112v150h106q143 0 143 90q0 45 -27.5 61.5t-86.5 16.5q-115 0 -174 -47l-91 119q82 84 271 84q127 0 205 -52q90 -57 90 -157q0 -139 -137 -183q147 -37 147 -188q0 -109 -92 -172 q-88 -55 -219 -55q-189 -1 -269 79zM242 27l1253 1484l150 -125l-1256 -1484zM1163 137v160l166 479h176l-166 -477h140v272h168v-270h114v-164h-114v-137h-170v137h-314z" />
<glyph unicode="&#xbf;" horiz-adv-x="980" d="M68 141q0 86 36.5 155t89 109.5t105.5 74.5t90 71t37 76t-39 96l184 94q88 -109 88 -209q0 -86 -54 -154.5t-119.5 -105.5t-120 -86t-54.5 -104q0 -125 154 -125q143 0 256 94l131 -172q-150 -129 -379 -129q-154 0 -264 63q-141 84 -141 252zM279 1118q0 68 45 112 t110.5 44t110.5 -44t45 -112q0 -66 -45 -109.5t-110.5 -43.5t-110.5 43.5t-45 109.5z" />
<glyph unicode="&#xc0;" horiz-adv-x="1245" d="M2 0l463 1413h319l459 -1413h-280l-95 309h-497l-97 -309h-272zM287 1788l123 178l407 -295l-98 -153zM430 524h381l-190 621z" />
<glyph unicode="&#xc1;" horiz-adv-x="1245" d="M2 0l463 1413h319l459 -1413h-280l-95 309h-497l-97 -309h-272zM406 1671l409 295l121 -178l-430 -270zM430 524h381l-190 621z" />
<glyph unicode="&#xc2;" horiz-adv-x="1245" d="M2 0l463 1413h319l459 -1413h-280l-95 309h-497l-97 -309h-272zM293 1681l334 230l325 -225l-96 -156l-233 145l-234 -147zM430 524h381l-190 621z" />
<glyph unicode="&#xc3;" horiz-adv-x="1245" d="M2 0l463 1413h319l459 -1413h-280l-95 309h-497l-97 -309h-272zM250 1753q125 143 250 143q57 0 141 -33.5t119 -33.5q59 0 125 74l110 -134q-63 -72 -119.5 -107.5t-130.5 -35.5q-57 0 -141 35t-119 35q-59 0 -125 -74zM430 524h381l-190 621z" />
<glyph unicode="&#xc4;" horiz-adv-x="1245" d="M2 0l463 1413h319l459 -1413h-280l-95 309h-497l-97 -309h-272zM287 1735q0 57 37.5 96t93.5 39q57 0 96 -38t39 -97q0 -55 -40 -93t-95.5 -38t-93 38t-37.5 93zM430 524h381l-190 621zM692 1735q0 59 37 97t94.5 38t96 -38t38.5 -97q0 -55 -39.5 -93t-95.5 -38 q-57 0 -94 38t-37 93z" />
<glyph unicode="&#xc5;" horiz-adv-x="1245" d="M2 0l463 1413h319l459 -1413h-280l-95 309h-497l-97 -309h-272zM365 1749q0 102 72.5 162.5t185 60.5t185.5 -61.5t73 -163.5t-73 -162.5t-185.5 -60.5t-185 60.5t-72.5 164.5zM430 524h381l-190 621zM528 1747q0 -86 94.5 -86t94.5 88q0 86 -94 86q-43 0 -69 -22.5 t-26 -65.5z" />
<glyph unicode="&#xc6;" horiz-adv-x="1792" d="M-37 0l664 1413h1044v-227h-541v-355h494v-225h-494v-383h551v-223h-813v338h-465l-151 -338h-289zM498 549h370v637h-84z" />
<glyph unicode="&#xc7;" horiz-adv-x="1173" d="M100 692q0 418 166 594q141 152 408 152q279 0 420 -158l-146 -178q-113 106 -282 106q-160 0 -224 -94q-68 -102 -67 -422q0 -311 78 -411q63 -78 188 -78q180 0 315 151l156 -159q-168 -205 -434 -218l-6 -61q135 -57 135 -176q0 -96 -64.5 -160.5t-179.5 -64.5 q-145 0 -231 116l106 111q51 -70 113 -70q74 0 74 68q0 70 -127 104l14 142q-154 29 -248 127q-164 169 -164 579z" />
<glyph unicode="&#xc8;" horiz-adv-x="1085" d="M158 0v1413h809v-223h-551v-361h502v-223h-502v-383h559v-223h-817zM238 1788l122 178l408 -295l-98 -153z" />
<glyph unicode="&#xc9;" horiz-adv-x="1085" d="M158 0v1413h809v-223h-551v-361h502v-223h-502v-383h559v-223h-817zM356 1671l410 295l121 -178l-430 -270z" />
<glyph unicode="&#xca;" horiz-adv-x="1085" d="M158 0v1413h809v-223h-551v-361h502v-223h-502v-383h559v-223h-817zM244 1681l334 230l325 -225l-96 -156l-234 145l-233 -147z" />
<glyph unicode="&#xcb;" horiz-adv-x="1085" d="M158 0v1413h809v-223h-551v-361h502v-223h-502v-383h559v-223h-817zM238 1735q0 57 37.5 96t93.5 39q57 0 96 -38t39 -97q0 -55 -40 -93t-95.5 -38t-93 38t-37.5 93zM643 1735q0 59 37 97t94 38t96 -38t39 -97q0 -55 -40 -93t-95 -38q-57 0 -94 38t-37 93z" />
<glyph unicode="&#xcc;" horiz-adv-x="575" d="M-49 1788l123 178l407 -295l-98 -153zM158 0v1413h260v-1413h-260z" />
<glyph unicode="&#xcd;" horiz-adv-x="575" d="M70 1671l409 295l121 -178l-430 -270zM158 0v1413h260v-1413h-260z" />
<glyph unicode="&#xce;" horiz-adv-x="575" d="M-43 1681l334 230l325 -225l-96 -156l-233 145l-234 -147zM158 0v1413h260v-1413h-260z" />
<glyph unicode="&#xcf;" horiz-adv-x="575" d="M-49 1735q0 57 38 96t93 39q57 0 96 -38t39 -97q0 -55 -40 -93t-95 -38t-93 38t-38 93zM158 0v1413h260v-1413h-260zM356 1735q0 59 37 97t94.5 38t96.5 -38t39 -97q0 -55 -40 -93t-96 -38q-57 0 -94 38t-37 93z" />
<glyph unicode="&#xd0;" horiz-adv-x="1368" d="M51 608v230h127v575h522q283 0 420 -143q147 -152 148 -549q0 -391 -148 -561q-143 -160 -415 -160h-527v608h-127zM436 229h252q184 0 248 101q55 90 55 379q0 313 -65 395q-61 80 -236 80h-254v-346h242v-230h-242v-379z" />
<glyph unicode="&#xd1;" horiz-adv-x="1445" d="M158 0v1413h338l548 -1061l-8 1061h254v-1413h-338l-551 1059l9 -1059h-252zM385 1753q125 143 250 143q57 0 141 -33.5t119 -33.5q59 0 125 74l110 -134q-63 -72 -119.5 -107.5t-129.5 -35.5q-57 0 -141.5 35t-118.5 35q-59 0 -125 -74z" />
<glyph unicode="&#xd2;" horiz-adv-x="1398" d="M100 692q0 410 168 588q152 162 443 162q289 0 434 -156q154 -170 153 -567q0 -412 -168 -588q-154 -160 -442 -160q-291 0 -434 156q-154 168 -154 565zM365 1788l122 178l408 -295l-98 -153zM381 705q0 -340 86 -435q72 -78 227 -77q158 0 236 88q49 55 69.5 153 t20.5 277q0 334 -88 430q-74 80 -227 80q-158 0 -236 -91q-49 -57 -68.5 -152t-19.5 -273z" />
<glyph unicode="&#xd3;" horiz-adv-x="1398" d="M100 692q0 410 168 588q152 162 443 162q289 0 434 -156q154 -170 153 -567q0 -412 -168 -588q-154 -160 -442 -160q-291 0 -434 156q-154 168 -154 565zM381 705q0 -340 86 -435q72 -78 227 -77q158 0 236 88q49 55 69.5 153t20.5 277q0 334 -88 430q-74 80 -227 80 q-158 0 -236 -91q-49 -57 -68.5 -152t-19.5 -273zM483 1671l410 295l121 -178l-430 -270z" />
<glyph unicode="&#xd4;" horiz-adv-x="1398" d="M100 692q0 410 168 588q152 162 443 162q289 0 434 -156q154 -170 153 -567q0 -412 -168 -588q-154 -160 -442 -160q-291 0 -434 156q-154 168 -154 565zM371 1681l334 230l325 -225l-96 -156l-234 145l-233 -147zM381 705q0 -340 86 -435q72 -78 227 -77q158 0 236 88 q49 55 69.5 153t20.5 277q0 334 -88 430q-74 80 -227 80q-158 0 -236 -91q-49 -57 -68.5 -152t-19.5 -273z" />
<glyph unicode="&#xd5;" horiz-adv-x="1398" d="M100 692q0 410 168 588q152 162 443 162q289 0 434 -156q154 -170 153 -567q0 -412 -168 -588q-154 -160 -442 -160q-291 0 -434 156q-154 168 -154 565zM328 1753q125 143 250 143q57 0 141 -33.5t119 -33.5q59 0 125 74l110 -134q-63 -72 -119.5 -107.5t-130.5 -35.5 q-57 0 -141 35t-119 35q-59 0 -125 -74zM381 705q0 -340 86 -435q72 -78 227 -77q158 0 236 88q49 55 69.5 153t20.5 277q0 334 -88 430q-74 80 -227 80q-158 0 -236 -91q-49 -57 -68.5 -152t-19.5 -273z" />
<glyph unicode="&#xd6;" horiz-adv-x="1398" d="M100 692q0 410 168 588q152 162 443 162q289 0 434 -156q154 -170 153 -567q0 -412 -168 -588q-154 -160 -442 -160q-291 0 -434 156q-154 168 -154 565zM365 1735q0 57 37.5 96t93.5 39q57 0 96 -38t39 -97q0 -55 -40 -93t-95.5 -38t-93 38t-37.5 93zM381 705 q0 -340 86 -435q72 -78 227 -77q158 0 236 88q49 55 69.5 153t20.5 277q0 334 -88 430q-74 80 -227 80q-158 0 -236 -91q-49 -57 -68.5 -152t-19.5 -273zM770 1735q0 59 37 97t94 38t96 -38t39 -97q0 -55 -40 -93t-95 -38q-57 0 -94 38t-37 93z" />
<glyph unicode="&#xd7;" horiz-adv-x="1189" d="M147 260l293 291l-293 291l156 155l291 -292l291 292l155 -155l-290 -291l290 -291l-153 -156l-293 293l-291 -293z" />
<glyph unicode="&#xd8;" horiz-adv-x="1404" d="M68 -33l141 213q-111 162 -111 510q0 406 156 582q154 170 455 170q178 0 301 -60l127 191l188 -127l-141 -213q111 -166 110 -510q0 -416 -170 -594q-152 -158 -440 -158q-178 0 -301 60l-127 -193zM358 698q0 -172 19 -266l508 764q-72 39 -180 39q-195 0 -275 -119 q-72 -109 -72 -418zM506 215q74 -37 180 -37q199 0 279 123q70 111 69 412q0 164 -18 268z" />
<glyph unicode="&#xd9;" horiz-adv-x="1382" d="M158 498v915h262v-913q0 -66 3 -104t18.5 -80t44 -63.5t79.5 -35.5t127 -14q174 0 223.5 67.5t49.5 231.5v911h262v-905q0 -242 -97 -361q-137 -172 -448 -172q-297 0 -426 158q-98 119 -98 365zM356 1788l123 178l408 -295l-99 -153z" />
<glyph unicode="&#xda;" horiz-adv-x="1382" d="M158 498v915h262v-913q0 -66 3 -104t18.5 -80t44 -63.5t79.5 -35.5t127 -14q174 0 223.5 67.5t49.5 231.5v911h262v-905q0 -242 -97 -361q-137 -172 -448 -172q-297 0 -426 158q-98 119 -98 365zM475 1671l410 295l121 -178l-431 -270z" />
<glyph unicode="&#xdb;" horiz-adv-x="1382" d="M158 498v915h262v-913q0 -66 3 -104t18.5 -80t44 -63.5t79.5 -35.5t127 -14q174 0 223.5 67.5t49.5 231.5v911h262v-905q0 -242 -97 -361q-137 -172 -448 -172q-297 0 -426 158q-98 119 -98 365zM362 1681l334 230l326 -225l-96 -156l-234 145l-233 -147z" />
<glyph unicode="&#xdc;" horiz-adv-x="1382" d="M158 498v915h262v-913q0 -66 3 -104t18.5 -80t44 -63.5t79.5 -35.5t127 -14q174 0 223.5 67.5t49.5 231.5v911h262v-905q0 -242 -97 -361q-137 -172 -448 -172q-297 0 -426 158q-98 119 -98 365zM356 1735q0 57 38 96t93 39q57 0 96.5 -38t39.5 -97q0 -55 -40 -93 t-95.5 -38t-93.5 38t-38 93zM762 1735q0 59 37 97t94 38t96 -38t39 -97q0 -55 -40 -93t-95 -38q-57 0 -94 38t-37 93z" />
<glyph unicode="&#xdd;" horiz-adv-x="1128" d="M-6 1413h301l268 -606l275 606h299l-447 -872v-541h-262v541zM348 1671l410 295l121 -178l-430 -270z" />
<glyph unicode="&#xde;" horiz-adv-x="1226" d="M158 0v1413h260v-256h241q190 0 302 -72q166 -106 165 -387q0 -293 -172 -401q-115 -72 -305 -72h-231v-225h-260zM418 453h233q113 0 156 43q47 49 47 196q0 160 -57 205q-43 33 -156 33h-223v-477z" />
<glyph unicode="&#xdf;" horiz-adv-x="1259" d="M147 956q0 74 8.5 142.5t40 153.5t82 146.5t144.5 104.5t219 43q221 0 338 -131q104 -119 104 -344q0 -121 -12 -190q-63 0 -94 -1t-75 -3.5t-63.5 -9.5t-42 -18t-30.5 -30.5t-8 -46.5q0 -49 45 -81t110.5 -54.5t130 -54t109.5 -102t45 -177.5q0 -76 -34 -142.5 t-87 -105.5q-106 -78 -272 -78q-215 0 -324 111l109 176q96 -88 244 -88q66 0 91 24.5t25 80.5q0 53 -45 89t-110.5 59.5t-130 55t-109.5 99t-45 168.5q0 121 84 204q94 90 237 105q2 23 3 78q0 96 -41 143q-39 45 -136 45q-156 0 -206 -90t-50 -256v-981h-254v956z" />
<glyph unicode="&#xe0;" horiz-adv-x="1050" d="M61 287q0 170 123 256t361 86h129v39q0 106 -40 147t-142 41q-158 0 -254 -98l-129 149q133 147 395 148q209 0 309 -90.5t100 -294.5v-670h-225v150q-106 -174 -317 -175q-135 0 -224 82q-86 83 -86 230zM242 1507l164 140l315 -383l-141 -127zM309 299q0 -129 105 -129 q92 0 174 77t88 208h-150q-115 0 -166 -31t-51 -125z" />
<glyph unicode="&#xe1;" horiz-adv-x="1050" d="M61 287q0 170 123 256t361 86h129v39q0 106 -40 147t-142 41q-158 0 -254 -98l-129 149q133 147 395 148q209 0 309 -90.5t100 -294.5v-670h-225v150q-106 -174 -317 -175q-135 0 -224 82q-86 83 -86 230zM309 299q0 -129 105 -129q92 0 174 77t88 208h-150 q-115 0 -166 -31t-51 -125zM309 1264l318 383l164 -140l-338 -370z" />
<glyph unicode="&#xe2;" horiz-adv-x="1050" d="M61 287q0 170 123 256t361 86h129v39q0 106 -40 147t-142 41q-158 0 -254 -98l-129 149q133 147 395 148q209 0 309 -90.5t100 -294.5v-670h-225v150q-106 -174 -317 -175q-135 0 -224 82q-86 83 -86 230zM213 1282l313 322l305 -318l-131 -131l-178 188l-180 -190z M309 299q0 -129 105 -129q92 0 174 77t88 208h-150q-115 0 -166 -31t-51 -125z" />
<glyph unicode="&#xe3;" horiz-adv-x="1050" d="M61 287q0 170 123 256t361 86h129v39q0 106 -40 147t-142 41q-158 0 -254 -98l-129 149q133 147 395 148q209 0 309 -90.5t100 -294.5v-670h-225v150q-106 -174 -317 -175q-135 0 -224 82q-86 83 -86 230zM150 1372q125 143 249 144q57 0 141.5 -34t118.5 -34 q59 0 125 74l111 -133q-63 -72 -119.5 -108t-130.5 -36q-57 0 -141 35t-119 35q-59 0 -125 -74zM309 299q0 -129 105 -129q92 0 174 77t88 208h-150q-115 0 -166 -31t-51 -125z" />
<glyph unicode="&#xe4;" horiz-adv-x="1050" d="M61 287q0 170 123 256t361 86h129v39q0 106 -40 147t-142 41q-158 0 -254 -98l-129 149q133 147 395 148q209 0 309 -90.5t100 -294.5v-670h-225v150q-106 -174 -317 -175q-135 0 -224 82q-86 83 -86 230zM186 1354q0 57 38 96t93 39q57 0 96.5 -38t39.5 -97 q0 -55 -40 -93t-95.5 -38t-93.5 38t-38 93zM309 299q0 -129 105 -129q92 0 174 77t88 208h-150q-115 0 -166 -31t-51 -125zM592 1354q0 59 37 97t94 38t96 -38t39 -97q0 -55 -40 -93t-95 -38q-57 0 -94 38t-37 93z" />
<glyph unicode="&#xe5;" horiz-adv-x="1050" d="M61 287q0 170 123 256t361 86h129v39q0 106 -40 147t-142 41q-158 0 -254 -98l-129 149q133 147 395 148q209 0 309 -90.5t100 -294.5v-670h-225v150q-106 -174 -317 -175q-135 0 -224 82q-86 83 -86 230zM258 1419.5q0 108.5 74 175t190.5 66.5t190 -66.5t73.5 -175 t-74.5 -175t-189 -66.5t-189.5 66.5t-75 175zM309 299q0 -129 105 -129q92 0 174 77t88 208h-150q-115 0 -166 -31t-51 -125zM430 1417q0 -47 25.5 -71.5t66.5 -24.5t66.5 25.5t25.5 72.5t-25.5 72t-66.5 25t-66.5 -26t-25.5 -73z" />
<glyph unicode="&#xe6;" horiz-adv-x="1671" d="M61 289q0 342 517 342h104v31q0 102 -40 148t-150 46q-160 0 -261 -92l-120 154q135 137 376 137q238 0 332 -162q115 166 336 166q203 0 304.5 -132t101.5 -345q0 -70 -9 -121l-620 -4q0 -141 41 -208t168 -67q147 0 280 117l133 -158q-164 -164 -405 -164 q-262 0 -367 201q-127 -203 -379 -203q-164 0 -253 83.5t-89 230.5zM317 299q0 -68 26 -98.5t95 -30.5q125 0 184.5 88t61.5 203h-117q-145 0 -197.5 -32t-52.5 -130zM938 629h369q0 125 -35 179t-133 54q-109 0 -153 -58t-48 -175z" />
<glyph unicode="&#xe7;" horiz-adv-x="991" d="M104 504q0 291 129 426q119 125 336 125q215 0 334 -121l-143 -170q-80 68 -189 67q-121 0 -160.5 -70.5t-39.5 -242.5q0 -170 36.5 -245.5t137.5 -75.5q125 0 221 108l152 -158q-123 -147 -330 -165l-6 -66q135 -57 135 -176q0 -96 -64.5 -160.5t-177.5 -64.5 q-143 0 -233 116l106 111q51 -70 113 -70q76 0 76 68q0 70 -129 104l14 144q-123 27 -203 114q-115 132 -115 402z" />
<glyph unicode="&#xe8;" horiz-adv-x="1105" d="M104 489q0 293 127 435q121 135 344.5 135t324.5 -127t101 -338q0 -57 -10 -133l-633 -4q2 -143 43 -209t168 -66q162 0 289 117l129 -152q-164 -170 -424 -170q-207 0 -327 111q-132 122 -132 401zM281 1507l163 140l316 -383l-142 -127zM365 639h385q0 117 -37 171 t-144 54q-111 0 -155.5 -57t-48.5 -168z" />
<glyph unicode="&#xe9;" horiz-adv-x="1105" d="M104 489q0 293 127 435q121 135 344.5 135t324.5 -127t101 -338q0 -57 -10 -133l-633 -4q2 -143 43 -209t168 -66q162 0 289 117l129 -152q-164 -170 -424 -170q-207 0 -327 111q-132 122 -132 401zM348 1264l318 383l163 -140l-337 -370zM365 639h385q0 117 -37 171 t-144 54q-111 0 -155.5 -57t-48.5 -168z" />
<glyph unicode="&#xea;" horiz-adv-x="1105" d="M104 489q0 293 127 435q121 135 344.5 135t324.5 -127t101 -338q0 -57 -10 -133l-633 -4q2 -143 43 -209t168 -66q162 0 289 117l129 -152q-164 -170 -424 -170q-207 0 -327 111q-132 122 -132 401zM252 1282l313 322l305 -318l-131 -131l-178 188l-180 -190zM365 639 h385q0 117 -37 171t-144 54q-111 0 -155.5 -57t-48.5 -168z" />
<glyph unicode="&#xeb;" horiz-adv-x="1105" d="M104 489q0 293 127 435q121 135 344.5 135t324.5 -127t101 -338q0 -57 -10 -133l-633 -4q2 -143 43 -209t168 -66q162 0 289 117l129 -152q-164 -170 -424 -170q-207 0 -327 111q-132 122 -132 401zM225 1354q0 57 38 96t93 39q57 0 96.5 -38t39.5 -97q0 -55 -40 -93 t-95.5 -38t-93.5 38t-38 93zM365 639h385q0 117 -37 171t-144 54q-111 0 -155.5 -57t-48.5 -168zM631 1354q0 59 37 97t94 38t96 -38t39 -97q0 -55 -40 -93t-95 -38q-57 0 -94 38t-37 93z" />
<glyph unicode="&#xec;" horiz-adv-x="548" d="M-8 1507l164 140l315 -383l-141 -127zM147 0v1032h254v-1032h-254z" />
<glyph unicode="&#xed;" horiz-adv-x="548" d="M59 1264l318 383l164 -140l-338 -370zM147 0v1032h254v-1032h-254z" />
<glyph unicode="&#xee;" horiz-adv-x="548" d="M-37 1282l313 322l306 -318l-131 -131l-179 188l-180 -190zM147 0v1032h254v-1032h-254z" />
<glyph unicode="&#xef;" horiz-adv-x="548" d="M-63 1354q0 57 37.5 96t93.5 39q57 0 96 -38t39 -97q0 -55 -40 -93t-95.5 -38t-93 38t-37.5 93zM147 0v1032h254v-1032h-254zM342 1354q0 59 37 97t94 38t96 -38t39 -97q0 -55 -40 -93t-95 -38q-57 0 -94 38t-37 93z" />
<glyph unicode="&#xf0;" horiz-adv-x="1179" d="M104 475q0 221 113 353.5t336 132.5q180 0 256 -93q-12 166 -94 287l-150 -113l-104 136l133 100q-84 66 -242 141l109 199q209 -92 330 -193l155 119l107 -137l-142 -107q166 -215 166 -612v-11q0 -701 -510 -702q-223 0 -343 135.5t-120 364.5zM375 481 q0 -166 47 -229.5t164 -63.5q129 0 176 76t47 228q0 141 -54.5 206.5t-172.5 65.5q-121 0 -164 -64.5t-43 -218.5z" />
<glyph unicode="&#xf1;" horiz-adv-x="1146" d="M147 0v1032h240v-180q94 207 320 207q145 0 224 -94.5t79 -262.5v-702h-254v651q0 92 -24.5 134t-86.5 42q-104 0 -174 -111.5t-70 -326.5v-389h-254zM201 1372q125 143 250 144q57 0 141 -34t119 -34q59 0 125 74l110 -133q-63 -72 -119.5 -108t-130.5 -36 q-57 0 -141 35t-119 35q-59 0 -125 -74z" />
<glyph unicode="&#xf2;" horiz-adv-x="1142" d="M104 498q0 305 132 436q123 127 348 127q207 0 329 -119q70 -70 97.5 -166t27.5 -244q0 -150 -28.5 -251t-100.5 -175q-127 -131 -346 -131q-211 0 -334 119q-70 70 -97.5 165.5t-27.5 238.5zM291 1507l164 140l315 -383l-141 -127zM365 510q0 -203 61 -272 q45 -49 141 -50q102 0 148 58q63 76 63 278q0 205 -61 273q-45 51 -142 51q-100 0 -147 -55q-63 -78 -63 -283z" />
<glyph unicode="&#xf3;" horiz-adv-x="1142" d="M104 498q0 305 132 436q123 127 348 127q207 0 329 -119q70 -70 97.5 -166t27.5 -244q0 -150 -28.5 -251t-100.5 -175q-127 -131 -346 -131q-211 0 -334 119q-70 70 -97.5 165.5t-27.5 238.5zM358 1264l318 383l164 -140l-338 -370zM365 510q0 -203 61 -272 q45 -49 141 -50q102 0 148 58q63 76 63 278q0 205 -61 273q-45 51 -142 51q-100 0 -147 -55q-63 -78 -63 -283z" />
<glyph unicode="&#xf4;" horiz-adv-x="1142" d="M104 498q0 305 132 436q123 127 348 127q207 0 329 -119q70 -70 97.5 -166t27.5 -244q0 -150 -28.5 -251t-100.5 -175q-127 -131 -346 -131q-211 0 -334 119q-70 70 -97.5 165.5t-27.5 238.5zM262 1282l313 322l306 -318l-131 -131l-179 188l-180 -190zM365 510 q0 -203 61 -272q45 -49 141 -50q102 0 148 58q63 76 63 278q0 205 -61 273q-45 51 -142 51q-100 0 -147 -55q-63 -78 -63 -283z" />
<glyph unicode="&#xf5;" horiz-adv-x="1142" d="M104 498q0 305 132 436q123 127 348 127q207 0 329 -119q70 -70 97.5 -166t27.5 -244q0 -150 -28.5 -251t-100.5 -175q-127 -131 -346 -131q-211 0 -334 119q-70 70 -97.5 165.5t-27.5 238.5zM199 1372q125 143 250 144q57 0 141 -34t119 -34q59 0 125 74l110 -133 q-63 -72 -119.5 -108t-130.5 -36q-57 0 -141 35t-119 35q-59 0 -125 -74zM365 510q0 -203 61 -272q45 -49 141 -50q102 0 148 58q63 76 63 278q0 205 -61 273q-45 51 -142 51q-100 0 -147 -55q-63 -78 -63 -283z" />
<glyph unicode="&#xf6;" horiz-adv-x="1142" d="M104 498q0 305 132 436q123 127 348 127q207 0 329 -119q70 -70 97.5 -166t27.5 -244q0 -150 -28.5 -251t-100.5 -175q-127 -131 -346 -131q-211 0 -334 119q-70 70 -97.5 165.5t-27.5 238.5zM236 1354q0 57 37.5 96t93.5 39q57 0 96 -38t39 -97q0 -55 -40 -93t-95.5 -38 t-93 38t-37.5 93zM365 510q0 -203 61 -272q45 -49 141 -50q102 0 148 58q63 76 63 278q0 205 -61 273q-45 51 -142 51q-100 0 -147 -55q-63 -78 -63 -283zM641 1354q0 59 37 97t94 38t96 -38t39 -97q0 -55 -40 -93t-95 -38q-57 0 -94 38t-37 93z" />
<glyph unicode="&#xf7;" horiz-adv-x="1189" d="M135 442v215h920v-215h-920zM463 195q0 55 38 93t95 38q55 0 93 -37t38 -92q0 -57 -38 -96.5t-95 -39.5q-53 0 -92 40.5t-39 93.5zM463 907.5q0 55.5 39 93t94 37.5q57 0 94 -37.5t37 -93t-38 -94.5t-93 -39q-57 0 -95 39t-38 94.5z" />
<glyph unicode="&#xf8;" horiz-adv-x="1159" d="M100 -49l115 182q-98 131 -98 367q0 268 127 411q129 145 352 146q100 0 186 -33l111 176l178 -119l-117 -182q100 -131 101 -369q0 -279 -135 -421q-127 -133 -345 -134q-106 0 -186 31l-110 -174zM338 496q0 -82 12 -150l328 514q-41 10 -82 10q-121 0 -182 -73 q-76 -90 -76 -301zM492 168q41 -10 81 -10q127 0 189 84q70 94 69 295q0 82 -12 145z" />
<glyph unicode="&#xf9;" horiz-adv-x="1144" d="M147 332v700h254v-655q0 -174 111 -174q96 0 163.5 108.5t67.5 321.5v399h254v-1032h-235v180q-90 -205 -316 -205q-147 0 -223 92.5t-76 264.5zM293 1507l164 140l315 -383l-141 -127z" />
<glyph unicode="&#xfa;" horiz-adv-x="1144" d="M147 332v700h254v-655q0 -174 111 -174q96 0 163.5 108.5t67.5 321.5v399h254v-1032h-235v180q-90 -205 -316 -205q-147 0 -223 92.5t-76 264.5zM360 1264l318 383l164 -140l-338 -370z" />
<glyph unicode="&#xfb;" horiz-adv-x="1144" d="M147 332v700h254v-655q0 -174 111 -174q96 0 163.5 108.5t67.5 321.5v399h254v-1032h-235v180q-90 -205 -316 -205q-147 0 -223 92.5t-76 264.5zM264 1282l314 322l305 -318l-131 -131l-179 188l-180 -190z" />
<glyph unicode="&#xfc;" horiz-adv-x="1144" d="M147 332v700h254v-655q0 -174 111 -174q96 0 163.5 108.5t67.5 321.5v399h254v-1032h-235v180q-90 -205 -316 -205q-147 0 -223 92.5t-76 264.5zM238 1354q0 57 37.5 96t93.5 39q57 0 96 -38t39 -97q0 -55 -40 -93t-95.5 -38t-93 38t-37.5 93zM643 1354q0 59 37 97t94 38 t96 -38t39 -97q0 -55 -40 -93t-95 -38q-57 0 -94 38t-37 93z" />
<glyph unicode="&#xfd;" horiz-adv-x="1060" d="M33 1032h270l242 -864l219 864h264l-285 -966q-80 -270 -197.5 -410.5t-293.5 -140.5q-113 0 -178 43l82 209q43 -23 96 -23q82 0 135 63.5t98 212.5h-131zM317 1264l318 383l164 -140l-338 -370z" />
<glyph unicode="&#xfe;" horiz-adv-x="1171" d="M147 -481v2048h254v-672q51 78 133 121t175 43q139 0 231 -92q129 -131 129 -435q0 -328 -147 -460q-106 -94 -277 -95q-150 0 -244 95v-553h-254zM393 451q0 -135 53 -197q57 -63 164 -63.5t149 73.5t42 262q0 168 -34 239t-116 71q-98 0 -172 -95q-86 -112 -86 -290z " />
<glyph unicode="&#xff;" horiz-adv-x="1060" d="M33 1032h270l242 -864l219 864h264l-285 -966q-80 -270 -197.5 -410.5t-293.5 -140.5q-113 0 -178 43l82 209q43 -23 96 -23q82 0 135 63.5t98 212.5h-131zM195 1354q0 57 37.5 96t93.5 39q57 0 96 -38t39 -97q0 -55 -40 -93t-95.5 -38t-93 38t-37.5 93zM600 1354 q0 59 37 97t94 38t96 -38t39 -97q0 -55 -40 -93t-95 -38q-57 0 -94 38t-37 93z" />
<glyph unicode="&#x152;" horiz-adv-x="1966" d="M100 705q0 356 138 526q156 193 475 192q47 0 143 -5t139 -5h850v-225h-631q76 -106 80 -357h504v-225h-504q0 -268 -86 -383h645v-223h-878q-49 0 -134 -5t-134 -5q-328 0 -476 192q-131 169 -131 523zM381 719q0 -106 2 -161.5t11 -124t28.5 -100.5t54.5 -63.5 t89.5 -43t129.5 -11.5q68 0 119 11.5t86 27.5t58.5 52t36 66.5t18.5 92t7 105.5t1 130q0 82 -1 124t-5 100.5t-11.5 87t-22.5 66.5t-36.5 54.5t-54.5 34t-76 23.5t-100 6q-70 0 -122 -11t-88 -27.5t-59.5 -52.5t-37 -65.5t-19.5 -90t-7 -104.5t-1 -126z" />
<glyph unicode="&#x153;" horiz-adv-x="1794" d="M104 502q0 258 123 401q131 156 348 156q229 0 345 -166q113 166 344 166q217 0 318 -133t101 -351q0 -8 -6 -112l-637 -4q0 -150 39 -213.5t162 -63.5q176 0 299 117l133 -147q-164 -174 -420 -175q-240 0 -346 162q-125 -164 -354 -164q-211 0 -330 138 q-119 135 -119 389zM369 498q0 -162 36.5 -235t155.5 -73q131 0 174 85t43 260q0 162 -39 234.5t-157 72.5q-129 0 -171 -82t-42 -262zM1047 633h383v14q0 118 -33 166q-35 51 -146 51q-113 0 -156.5 -54t-47.5 -177z" />
<glyph unicode="&#x178;" horiz-adv-x="1128" d="M-6 1413h301l268 -606l275 606h299l-447 -872v-541h-262v541zM229 1735q0 57 38 96t93 39q57 0 96.5 -38t39.5 -97q0 -55 -40 -93t-95.5 -38t-93.5 38t-38 93zM635 1735q0 59 37 97t94 38t96 -38t39 -97q0 -55 -40 -93t-95 -38q-57 0 -94 38t-37 93z" />
<glyph unicode="&#x2c6;" horiz-adv-x="409" d="M-104 1282l313 322l305 -318l-131 -131l-178 188l-180 -190z" />
<glyph unicode="&#x2dc;" horiz-adv-x="409" d="M-168 1372q125 143 250 144q57 0 141 -34t119 -34q59 0 125 74l111 -133q-63 -72 -120 -108t-130 -36q-57 0 -141.5 35t-118.5 35q-59 0 -125 -74z" />
<glyph unicode="&#x2013;" horiz-adv-x="1024" d="M35 432v236h954v-236h-954z" />
<glyph unicode="&#x2014;" horiz-adv-x="2048" d="M35 432v236h1978v-236h-1978z" />
<glyph unicode="&#x2018;" horiz-adv-x="528" d="M109 1174q0 166 184 444l160 -86q-88 -176 -105 -240q74 -37 74 -133q0 -66 -43 -110.5t-115 -44.5q-74 0 -114.5 46t-40.5 124z" />
<glyph unicode="&#x2019;" horiz-adv-x="528" d="M76 1038q86 166 106 240q-74 37 -73 131q0 68 43 113t112 45q72 0 114 -46t42 -116q0 -174 -184 -453z" />
<glyph unicode="&#x201a;" horiz-adv-x="526" d="M76 -223q88 170 104 233q-74 37 -74 129q0 66 43.5 110t115 44t112.5 -46t41 -120q0 -162 -182 -434z" />
<glyph unicode="&#x201c;" horiz-adv-x="956" d="M109 1139q0 160 184 434l158 -84q-88 -170 -105 -234q74 -41 74 -131q0 -66 -43 -109.5t-115 -43.5t-112.5 46t-40.5 122zM541 1139q0 162 182 434l158 -84q-88 -170 -105 -234q74 -41 74 -131q0 -66 -43 -109.5t-114.5 -43.5t-111.5 45t-40 123z" />
<glyph unicode="&#x201d;" horiz-adv-x="956" d="M76 1006q84 160 104 233q-74 37 -74 129q0 66 43.5 110t112.5 44h6q69 0 109 -44q41 -46 41 -122q0 -162 -182 -434zM508 1006q86 172 102 233q-74 37 -73 129q0 66 43 110t112 44h6q69 0 109 -44q41 -46 41 -122q0 -164 -184 -434z" />
<glyph unicode="&#x201e;" horiz-adv-x="956" d="M76 -223q88 170 104 233q-74 37 -74 129q0 66 43.5 110t115 44t112.5 -46t41 -120q0 -162 -182 -434zM508 -223q8 14 28 53l29 60q10 22 23.5 57t21.5 63q-74 37 -73 129q0 66 43 110t114.5 44t112.5 -46t41 -122q0 -160 -184 -432z" />
<glyph unicode="&#x2022;" horiz-adv-x="696" d="M100 707q0 104 70 175.5t176 71.5q109 0 179.5 -71.5t70.5 -175.5q0 -102 -71.5 -174t-178 -72t-176.5 72t-70 174z" />
<glyph unicode="&#x2026;" horiz-adv-x="2035" d="M182 141q0 70 44 114t114 44q68 0 113 -44t45 -114q0 -68 -45 -112.5t-113 -44.5t-113 44.5t-45 112.5zM860 141q0 70 45 114t113 44q70 0 114 -44t44 -114q0 -68 -45.5 -112.5t-113 -44.5t-112.5 44.5t-45 112.5zM1540 141q0 70 44 114t114 44q68 0 112.5 -44t44.5 -114 q0 -68 -45 -112.5t-112.5 -44.5t-112.5 44.5t-45 112.5z" />
<glyph unicode="&#x2039;" horiz-adv-x="671" d="M39 551l393 457l172 -134l-270 -323l270 -322l-172 -135z" />
<glyph unicode="&#x203a;" horiz-adv-x="671" d="M68 227l270 324l-270 321l172 136l393 -457l-393 -457z" />
<glyph unicode="&#x20ac;" d="M8 428l47 190h107v82v76h-154l47 191h125q27 162 103 268q145 199 456 199q203 0 338 -72l-67 -213q-119 66 -283 65q-139 0 -202.5 -59t-82.5 -188h519l-50 -191h-481v-57v-101h440l-47 -190h-377q20 -121 79 -176t175 -55q178 0 342 116v-237q-150 -96 -346 -96 q-303 0 -436 227q-55 94 -78 221h-174z" />
<glyph unicode="&#x2122;" horiz-adv-x="1292" d="M23 1307v147h442v-147h-139v-389h-164v389h-139zM532 918l37 536h217l93 -291l90 291h217l35 -536h-160l-12 356l-99 -336h-149l-96 338l-13 -358h-160z" />
<glyph unicode="&#xe000;" horiz-adv-x="1030" d="M0 1030h1030v-1030h-1030v1030z" />
<glyph unicode="&#xfb01;" horiz-adv-x="1265" d="M66 1006h170v53q0 102 21.5 180t76.5 144.5t160.5 101.5t259.5 35q242 0 364 -95l-96 -188q-109 68 -289 68q-158 0 -202 -52.5t-44 -183.5v-63h631v-1006h-254v786h-377v-786h-251v786h-170v220z" />
<glyph unicode="&#xfb02;" horiz-adv-x="1337" d="M66 784v222h167v75q0 432 394 432q84 0 151 -24l-45 -211q-43 16 -94 16q-98 0 -125 -51t-27 -172v-65h218v-222h-218v-784h-254v784h-167zM936 0v1567h254v-1567h-254z" />
<glyph unicode="&#xfb03;" horiz-adv-x="1886" d="M66 786v211h167v68q0 432 385 432q84 0 152 -24l-45 -211q-43 16 -94 16q-98 0 -125 -51t-27 -172v-58h383v62q0 104 21.5 181t75 143.5t158 101.5t257.5 35q240 0 365 -95l-97 -188q-109 68 -288 68q-160 0 -204 -52.5t-44 -183.5v-72h631v-997h-252v786h-379v-786h-244 v786h-383v-786h-246v786h-167z" />
<glyph unicode="&#xfb04;" horiz-adv-x="2158" d="M66 784v222h167v65q0 195 100.5 320t315.5 125q158 0 240 -60l-86 -194q-59 33 -148 32q-100 0 -134 -51t-34 -174v-63h254v-222h-254v-784h-254v784h-167zM870 784v222h168v65q0 195 100.5 320t315.5 125q158 0 240 -60l-86 -194q-59 33 -148 32q-100 0 -134 -51 t-34 -174v-63h254v-222h-254v-784h-254v784h-168zM1757 0v1567h254v-1567h-254z" />
</font>
</defs>
</svg>
