<?xml version="1.0" standalone="no"?>
<!DOCTYPE svg PUBLIC "-//W3C//DTD SVG 1.1//EN" "http://www.w3.org/Graphics/SVG/1.1/DTD/svg11.dtd" >
<svg xmlns="http://www.w3.org/2000/svg">
<metadata>
This is a custom SVG webfont generated by Font Squirrel.
Copyright   :  2004 Just Another Foundry All Rights Reserved
Designer    : Tim Ahrens
Foundry URL : httpjustanotherfoundrycom
</metadata>
<defs>
<font id="FacitBold" horiz-adv-x="1181" >
<font-face units-per-em="2048" ascent="1638" descent="-410" />
<missing-glyph horiz-adv-x="397" />
<glyph unicode=" "  horiz-adv-x="397" />
<glyph unicode="&#x09;" horiz-adv-x="397" />
<glyph unicode="&#xa0;" horiz-adv-x="397" />
<glyph unicode="!" horiz-adv-x="681" d="M201 168q0 82 53 135t133 53q82 0 135 -53t53 -135q0 -80 -53 -133t-135 -53q-80 0 -133 53t-53 133zM215 1413h346l-18 -919h-310z" />
<glyph unicode="&#x22;" horiz-adv-x="937" d="M127 1413h283l-11 -520h-262zM530 1413h281l-10 -520h-262z" />
<glyph unicode="#" d="M20 334v252h162l33 239h-129v252h172l51 336h277l-54 -336h209l52 336h274l-51 -336h121v-252h-164l-35 -239h129v-252h-170l-51 -334h-277l54 334h-209l-52 -334h-276l53 334h-119zM457 586h207l34 239h-209z" />
<glyph unicode="$" d="M61 184l166 246q139 -98 346 -98q178 0 179 117q0 49 -49.5 82.5t-123 50t-159.5 46t-160 67.5t-123 117t-49 189q0 184 143 291q78 57 191 86l-2 189h344l-2 -174q195 -27 301 -107l-158 -239q-119 76 -303 75q-172 0 -172 -108q0 -51 68.5 -82t166 -55.5t194.5 -62.5 t166 -125t69 -220q0 -199 -158 -311q-76 -53 -174 -78l2 -193h-344l2 170q-238 27 -361 127z" />
<glyph unicode="%" horiz-adv-x="1941" d="M102 1008q0 233 93 333q82 88 235 89q147 0 225 -82q92 -96 93 -328q0 -229 -95 -332q-80 -86 -233 -86q-147 0 -230 82q-88 95 -88 324zM262 37l1254 1487l178 -150l-1254 -1485zM326 1010q0 -129 18 -176.5t78 -47.5q63 0 82.5 49.5t19.5 188.5q0 127 -17.5 173 t-76.5 46q-66 0 -85 -49t-19 -184zM1192 393q0 233 92 330q78 88 236 88q150 0 227 -82q92 -100 92 -328q0 -231 -96 -331q-82 -86 -231.5 -86t-229.5 84q-90 96 -90 325zM1417 393q0 -131 18.5 -177t77.5 -46q63 0 83 49t20 182q0 129 -18.5 176.5t-77.5 47.5 q-63 0 -83 -49.5t-20 -182.5z" />
<glyph unicode="&#x26;" horiz-adv-x="1384" d="M86 358q0 233 205 400q-106 139 -107 284q0 176 115 281q117 111 330 111q199 0 313 -111l-172 -205q-66 55 -156 56q-127 0 -127 -119q0 -78 48.5 -148.5t185.5 -218.5l164 -178q43 100 49 235h274q0 -217 -137 -434l289 -311h-365l-98 104q-143 -131 -350 -131 q-211 0 -336 105q-125 102 -125 280zM377 373q0 -154 172 -154q98 0 178 66l-258 274q-92 -71 -92 -186z" />
<glyph unicode="'" horiz-adv-x="536" d="M127 1413h283l-11 -520h-262z" />
<glyph unicode="(" horiz-adv-x="735" d="M113 600q0 385 72.5 605t277.5 368l184 -240q-141 -111 -178 -250t-37 -487t36 -489.5t179 -249.5l-184 -238q-205 145 -277.5 369.5t-72.5 611.5z" />
<glyph unicode=")" horiz-adv-x="735" d="M90 -141q141 111 178 250t37 487q0 346 -37 486.5t-178 250.5l184 238q205 -143 278 -367.5t73 -611.5q0 -385 -73 -605t-278 -368z" />
<glyph unicode="*" horiz-adv-x="1050" d="M86 1161l72 219l258 -92l-6 279h229l-4 -279l258 90l70 -219l-261 -78l164 -223l-186 -135l-156 229l-155 -229l-185 137l164 219z" />
<glyph unicode="+" horiz-adv-x="1161" d="M94 418v276h332v381h311v-381h332v-276h-332v-381h-311v381h-332z" />
<glyph unicode="," horiz-adv-x="579" d="M70 -233q88 170 110 256q-84 49 -84 153q0 82 52.5 137.5t142.5 55.5q88 0 139 -54.5t51 -146.5q0 -190 -209 -506z" />
<glyph unicode="-" horiz-adv-x="653" d="M29 408v294h596v-294h-596z" />
<glyph unicode="." horiz-adv-x="579" d="M96 174q0 84 55.5 139.5t139.5 55.5t138 -55.5t54 -139.5t-55 -139t-137 -55t-138.5 55t-56.5 139z" />
<glyph unicode="/" horiz-adv-x="976" d="M-6 -231l688 1964l289 -107l-688 -1964z" />
<glyph unicode="0" d="M76 696q0 424 155 600q129 145 367 146q244 0 369 -148q139 -164 139 -575q0 -420 -156 -600q-131 -147 -366 -148q-246 0 -369 148q-139 163 -139 577zM412 688q0 -242 34.5 -338t139.5 -96q106 0 144 104.5t38 366.5q0 242 -35 338t-137 96q-109 0 -146.5 -103.5 t-37.5 -367.5z" />
<glyph unicode="1" d="M51 1104l412 309h364v-1124h267v-289h-942v289h346v794l-267 -209z" />
<glyph unicode="2" d="M86 1247q168 193 502 193q217 0 352 -96.5t135 -315.5q0 -160 -74.5 -249t-246.5 -193q-176 -106 -238.5 -166t-62.5 -139l614 2v-283h-963v213q0 104 20.5 178t77 138.5t124 113.5t192.5 123q86 51 125 79.5t70.5 76t31.5 104.5q0 78 -47 107.5t-135 29.5 q-166 0 -276 -112z" />
<glyph unicode="3" d="M72 119l159 219q98 -96 295 -96q100 0 152.5 38.5t52.5 137.5q0 96 -55 132t-184 36h-195v264h188q227 0 228 172q0 84 -45 114.5t-142 30.5q-193 0 -290 -90l-160 215q76 78 204 114t261 36q217 0 354 -90q152 -98 152 -289q0 -119 -59.5 -206t-174.5 -126 q250 -68 250 -346q0 -205 -156 -313q-143 -98 -377 -99q-141 0 -266.5 36t-191.5 110z" />
<glyph unicode="4" d="M80 254v285l272 874h314l-273 -870h225v499h297v-497h191v-291h-191v-254h-303v254h-532z" />
<glyph unicode="5" d="M109 115l157 221q49 -47 131 -70.5t160 -23.5q86 0 125 28q68 47 68 185q0 125 -56 168q-43 33 -127 32q-109 0 -180 -73l-240 57l7 774h845v-272h-569l-6 -283q72 57 213 57q176 0 301 -98q145 -115 145 -352q0 -264 -176 -391q-143 -100 -352 -101q-123 0 -249.5 35 t-196.5 107z" />
<glyph unicode="6" d="M90 692q0 213 31 358.5t112 237.5q139 154 418 154q305 0 430 -133l-159 -217q-90 80 -279 79q-80 0 -126 -18t-69.5 -72.5t-29.5 -116t-8 -186.5q84 109 270 109q172 0 293 -99q129 -113 129 -344q0 -244 -139 -362q-127 -109 -353 -109q-262 0 -389 154 q-131 155 -131 565zM424 432q0 -106 42 -155.5t142 -49.5q102 0 141 52.5t39 164.5q0 117 -36.5 165t-130.5 48q-102 0 -149.5 -54t-47.5 -171z" />
<glyph unicode="7" d="M86 1413h1004v-291q-262 -598 -418 -1122h-355q137 471 433 1106h-388l-6 -221h-264z" />
<glyph unicode="8" d="M88 362q0 250 260 357q-240 104 -239 344q0 102 43 180t115.5 120t154.5 62.5t174 20.5q123 0 226.5 -33t178 -119t74.5 -217q0 -236 -231 -348q250 -102 250 -362q0 -201 -145.5 -299.5t-356.5 -98.5q-133 0 -242.5 38t-185.5 129t-76 226zM385 391q0 -176 205 -176 t205 176q0 53 -15.5 91t-50.5 63.5t-62.5 38t-78.5 30.5q-47 -16 -78 -30.5t-62.5 -39t-47 -63.5t-15.5 -90zM408 1038q0 -49 13 -82.5t44 -56t54.5 -33t70.5 -26.5q47 14 72.5 26.5t56.5 35t44 56t13 82.5q0 162 -182 162q-186 0 -186 -164z" />
<glyph unicode="9" d="M80 971q0 240 139 360q125 109 350 109q260 0 389 -152q78 -94 106 -228t28 -337q0 -217 -30 -362.5t-114 -235.5q-139 -154 -418 -154q-305 0 -430 133l160 218q90 -80 277 -80q66 0 107.5 14t67 38.5t38 78t16.5 109t4 153.5q-80 -109 -266 -109q-184 0 -295 99 q-129 113 -129 346zM391 969q0 -117 38 -165t130 -48q102 0 150.5 53t48.5 172q0 106 -42 155.5t-143 49.5q-102 0 -142 -52t-40 -165z" />
<glyph unicode=":" horiz-adv-x="614" d="M135 170q0 82 53.5 136t135.5 54t135 -54t53 -136t-53 -135t-135 -53t-135.5 53t-53.5 135zM135 821q0 82 53.5 136.5t135.5 54.5t135 -54.5t53 -136.5q0 -80 -53 -134t-135 -54t-135.5 54t-53.5 134z" />
<glyph unicode=";" horiz-adv-x="581" d="M68 -233q84 158 108 256q-80 47 -80 149q0 82 51.5 136t137.5 54q88 0 138 -54t50 -144q0 -190 -207 -500zM96 827q0 82 53.5 136.5t135.5 54.5t136 -54.5t54 -136.5t-54 -136t-136 -54t-135.5 54t-53.5 136z" />
<glyph unicode="&#x3c;" horiz-adv-x="1163" d="M94 399v312l826 360l98 -272l-617 -242l617 -246l-98 -272z" />
<glyph unicode="=" horiz-adv-x="1161" d="M145 193v268h873v-268h-873zM145 649v269h873v-269h-873z" />
<glyph unicode="&#x3e;" horiz-adv-x="1163" d="M147 311l615 244l-615 244l97 272l825 -360v-312l-825 -360z" />
<glyph unicode="?" horiz-adv-x="972" d="M117 1296q158 133 393 134q170 0 287 -72q143 -86 143 -256q0 -88 -37 -158t-89 -109.5t-103.5 -70.5t-88 -63.5t-36.5 -67.5q0 -33 30 -80l-229 -102q-88 113 -88 211q0 70 36 127t86 91.5t100 65.5t86 66t36 71q0 92 -125 93q-133 0 -237 -89zM373 170q0 80 53 133 t135 53q80 0 134.5 -53t54.5 -133q0 -82 -54.5 -135t-134.5 -53q-82 0 -135 53t-53 135z" />
<glyph unicode="@" horiz-adv-x="1742" d="M84 555q0 377 219 599t586 222q354 0 558 -203.5t204 -517.5q0 -223 -102.5 -365.5t-286.5 -142.5q-172 0 -218 136q-100 -141 -274 -142q-123 0 -200.5 71t-77.5 191q0 266 409 267h78v20q0 51 -24.5 70.5t-90.5 19.5q-137 0 -207 -61l-125 166q115 106 340 106 q184 0 273.5 -81t89.5 -253v-147q0 -168 72 -168q45 0 73.5 70.5t28.5 195.5q0 537 -526 537q-559 0 -559 -586q0 -293 148.5 -435t469.5 -142q369 0 574 190l137 -152q-119 -119 -305.5 -189.5t-419.5 -70.5q-412 0 -628 215t-216 580zM762 414q0 -66 55 -66q49 0 102.5 46 t61.5 104h-84q-45 0 -69.5 -4.5t-45 -23.5t-20.5 -56z" />
<glyph unicode="A" horiz-adv-x="1273" d="M-6 0l444 1413h398l444 -1413h-348l-76 268h-448l-76 -268h-338zM479 532h307l-153 547z" />
<glyph unicode="B" horiz-adv-x="1265" d="M141 0v1413h592q203 0 307 -82q115 -86 115 -258q0 -123 -58.5 -211t-172.5 -119q258 -45 258 -325q0 -209 -138 -318q-127 -100 -346 -100h-557zM463 262h196q94 0 134 37q45 41 45 137q0 88 -39 121t-127 33h-209v-328zM463 836h151q94 0 145.5 38.5t51.5 139.5 q0 80 -35 110q-27 25 -102 25h-211v-313z" />
<glyph unicode="C" horiz-adv-x="1157" d="M84 690q0 416 168 592q145 156 424 156q281 0 426 -156l-180 -227q-100 94 -256 94q-133 0 -185 -80q-53 -84 -53 -373q0 -287 61 -368q49 -68 154 -68q158 0 283 141l194 -204q-188 -221 -489 -222q-248 0 -383 142q-164 165 -164 573z" />
<glyph unicode="D" horiz-adv-x="1355" d="M141 0v1413h555q281 0 418 -131q88 -84 123 -220t35 -339q0 -205 -37 -352.5t-137 -239.5q-141 -131 -391 -131h-566zM475 289h203q129 0 186 67q63 72 63.5 352.5t-65.5 354.5q-55 61 -182 61h-205v-835z" />
<glyph unicode="E" horiz-adv-x="1101" d="M141 0v1413h846v-276h-522v-283h475v-276h-475v-304h532v-274h-856z" />
<glyph unicode="F" horiz-adv-x="1058" d="M141 0v1413h850v-295h-518v-293h473v-293h-473v-532h-332z" />
<glyph unicode="G" horiz-adv-x="1325" d="M84 688q0 211 37 356.5t133 237.5q156 152 467 152q313 0 473 -148l-190 -233q-113 94 -299 94q-152 0 -211 -70q-35 -41 -48.5 -120.5t-13.5 -247.5q0 -186 15.5 -272.5t52.5 -125.5q57 -63 209 -63q119 0 198 24v267h-233v266h532v-733q-225 -92 -483 -92 q-319 0 -477 153q-94 92 -128 227t-34 328z" />
<glyph unicode="H" horiz-adv-x="1388" d="M141 0v1413h332v-545h445v545h329v-1413h-329v573h-445v-573h-332z" />
<glyph unicode="I" horiz-adv-x="612" d="M141 0v1413h332v-1413h-332z" />
<glyph unicode="J" horiz-adv-x="655" d="M-160 -422l45 283q53 -16 117 -17q109 0 146.5 56.5t37.5 187.5v1325h330v-1309q0 -551 -506 -550q-102 -1 -170 24z" />
<glyph unicode="K" horiz-adv-x="1343" d="M141 0v1413h332v-534h125l330 534h379l-422 -684l456 -729h-395l-350 567h-123v-567h-332z" />
<glyph unicode="L" horiz-adv-x="1005" d="M141 0v1413h332v-1118h485v-295h-817z" />
<glyph unicode="M" horiz-adv-x="1773" d="M104 0l80 1413h445l258 -893l264 893h438l80 -1413h-323l-35 1044l-275 -981h-303l-272 984l-37 -1047h-320z" />
<glyph unicode="N" horiz-adv-x="1460" d="M141 0v1413h420l451 -964l-11 964h318v-1413h-420l-450 965l10 -965h-318z" />
<glyph unicode="O" horiz-adv-x="1404" d="M84 692q0 420 174 594q158 158 453 158q299 0 450 -156q160 -162 160 -569q0 -418 -174 -592q-162 -158 -455 -158q-299 0 -448 156q-160 166 -160 567zM436 705q0 -307 74 -390q59 -66 186 -65q135 0 201 78q72 88 72 379q0 307 -74 389q-61 68 -186 67q-135 0 -201 -78 q-72 -87 -72 -380z" />
<glyph unicode="P" horiz-adv-x="1239" d="M141 0v1413h541q223 0 342 -92q154 -119 154 -393q0 -283 -152 -402q-121 -94 -352 -94h-201v-432h-332zM473 717h193q92 0 129 37q39 37 39 168q0 137 -46 176q-35 31 -131 30h-184v-411z" />
<glyph unicode="Q" horiz-adv-x="1404" d="M84 692q0 420 174 594q158 158 453 158q299 0 450 -156q160 -162 160 -569q0 -383 -143 -555l172 -191l-256 -237l-226 250q-82 -16 -176 -17q-299 0 -448 156q-160 166 -160 567zM436 705q0 -307 74 -390q59 -66 186 -65q135 0 201 78q72 88 72 379q0 307 -74 389 q-61 68 -186 67q-135 0 -201 -78q-72 -87 -72 -380z" />
<glyph unicode="R" horiz-adv-x="1298" d="M141 0v1413h578q213 0 332 -76q156 -100 155 -327q0 -322 -266 -392q129 -25 184.5 -159.5t89.5 -458.5h-348q-39 297 -76.5 388t-130.5 91h-186v-479h-332zM473 1130v-372h150q127 0 183 43t56 170q0 94 -39 131q-31 29 -123 28h-227z" />
<glyph unicode="S" horiz-adv-x="1097" d="M31 117l164 243q131 -104 335 -104q84 0 130.5 31.5t46.5 115.5q0 55 -48.5 94.5t-120 60t-156.5 53t-156.5 73.5t-120 125t-48.5 203q0 197 160 315q150 111 369 111q115 0 232.5 -30t193.5 -93l-156 -240q-119 82 -297 82q-82 0 -124 -29.5t-42 -107.5q0 -49 48 -84 t120 -53.5t157 -52t156.5 -75.5t119.5 -128t48 -207q0 -225 -178 -346q-143 -98 -366 -99q-129 0 -258 35t-209 107z" />
<glyph unicode="T" horiz-adv-x="1087" d="M16 1118v295h1055v-295h-362v-1118h-332v1118h-361z" />
<glyph unicode="U" horiz-adv-x="1388" d="M141 498v915h332v-909q0 -131 39 -186.5t184 -55.5q139 0 179 54.5t40 187.5v909h332v-905q0 -236 -94 -354q-139 -178 -469 -179q-309 0 -442 158q-101 121 -101 365z" />
<glyph unicode="V" horiz-adv-x="1267" d="M6 1413h352l281 -1040l276 1040h349l-447 -1413h-371z" />
<glyph unicode="W" horiz-adv-x="1847" d="M20 1413h332l180 -1026l226 989h336l223 -987l180 1024h330l-311 -1413h-375l-221 971l-224 -971h-374z" />
<glyph unicode="X" horiz-adv-x="1300" d="M8 0l430 731l-399 682h387l229 -459l226 459h381l-398 -682l430 -731h-391l-254 502l-258 -502h-383z" />
<glyph unicode="Y" horiz-adv-x="1163" d="M-20 1413h378l222 -551l227 551h379l-445 -887v-526h-331v526z" />
<glyph unicode="Z" horiz-adv-x="1114" d="M61 0v276l562 842h-539v291h940v-276l-565 -844l579 2v-291h-977z" />
<glyph unicode="[" horiz-adv-x="747" d="M141 -305v1802h518v-262h-213v-1280h213v-260h-518z" />
<glyph unicode="\" horiz-adv-x="966" d="M6 1606l291 106l678 -1943l-291 -107z" />
<glyph unicode="]" horiz-adv-x="747" d="M90 -43h213v1278h-213v262h516v-1802h-516v262z" />
<glyph unicode="^" horiz-adv-x="1161" d="M68 698l356 824h313l359 -824l-275 -98l-241 614l-240 -614z" />
<glyph unicode="_" horiz-adv-x="849" d="M0 -76h850v-286h-850v286z" />
<glyph unicode="`" horiz-adv-x="409" d="M-102 1522l198 170l334 -404l-172 -153z" />
<glyph unicode="a" horiz-adv-x="1069" d="M51 297q0 182 129 270q123 84 365 84h110v27q0 86 -33.5 117.5t-119.5 31.5q-152 0 -246 -92l-158 183q139 150 418 149q225 0 329.5 -92t104.5 -309v-666h-272l-2 133q-109 -160 -303 -160q-141 0 -230 82q-92 86 -92 242zM352 311q0 -104 74 -104q72 0 148.5 68.5 t87.5 170.5h-132q-94 0 -136 -25.5t-42 -109.5z" />
<glyph unicode="b" horiz-adv-x="1177" d="M129 0v1567h322v-629q104 133 282 133q109 0 182.5 -44t110.5 -124t51.5 -166t14.5 -196q0 -119 -16.5 -209t-57.5 -175t-124 -131t-204 -46q-182 0 -282 129l-7 -109h-272zM438 479q0 -121 56 -178q51 -57 129 -57q84 0 111.5 66.5t27.5 209.5q0 141 -24.5 207t-94.5 66 q-78 0 -135 -76q-70 -88 -70 -238z" />
<glyph unicode="c" horiz-adv-x="980" d="M86 510q0 297 139 436q127 123 348 123q227 0 347 -121l-181 -217q-66 57 -161 57q-94 0 -125 -58t-31 -206q0 -145 27.5 -207.5t103.5 -62.5q102 0 190 94l191 -203q-147 -166 -397 -165q-213 0 -328 124q-123 134 -123 406z" />
<glyph unicode="d" horiz-adv-x="1183" d="M86 514q0 317 137 449q111 106 291 106q139 0 219 -74v572h322v-1567h-301l-4 137q-106 -164 -306 -164q-145 0 -235 101q-123 135 -123 440zM424 518q0 -152 22.5 -211t81.5 -59q70 0 131 78q86 109 86 266q0 113 -53 166q-43 43 -121 43q-90 0 -118.5 -63.5 t-28.5 -219.5z" />
<glyph unicode="e" horiz-adv-x="1114" d="M86 502q0 295 137 438q127 131 359 131q442 0 442 -504q0 -57 -8 -123l-617 -6q2 -113 37 -164t139 -51q156 0 277 111l158 -184q-172 -174 -445 -175q-215 0 -338 107q-141 125 -141 420zM403 649h316q-2 100 -31 144.5t-119 44.5t-126 -47.5t-40 -141.5z" />
<glyph unicode="f" horiz-adv-x="831" d="M61 739v281h156v51q0 199 105.5 325t334.5 126q172 0 267 -62l-105 -246q-57 31 -141 31q-86 0 -113.5 -40t-27.5 -138v-47h237v-281h-237v-739h-320v739h-156z" />
<glyph unicode="g" d="M86 520q0 299 129 436q106 111 283 111q180 0 280 -125l4 102h273v-1028q0 -100 -25.5 -183t-84 -156.5t-171 -114.5t-270.5 -41q-272 0 -404 121l150 227q104 -84 268 -84q131 0 175 49t44 156v147q-102 -143 -286 -143q-160 0 -256 115q-109 132 -109 411zM424 526 q0 -147 22.5 -207.5t85.5 -60.5q78 0 138 76q76 98 75 248q0 113 -55 170q-51 51 -127 51q-84 0 -111.5 -62.5t-27.5 -214.5z" />
<glyph unicode="h" horiz-adv-x="1165" d="M129 0v1567h322v-654q90 158 294 158q145 0 223.5 -96t78.5 -277v-698h-324v653q0 63 -16.5 92t-59.5 29q-80 0 -138 -90t-58 -268v-416h-322z" />
<glyph unicode="i" horiz-adv-x="577" d="M100 1388.5q0 81.5 54.5 137t134.5 55.5q82 0 135 -54t53 -138q0 -82 -53 -136.5t-135 -54.5q-80 0 -134.5 54.5t-54.5 136zM129 0v1044h322v-1044h-322z" />
<glyph unicode="j" horiz-adv-x="589" d="M-117 -455l43 279q41 -10 90 -10q76 0 100.5 32.5t24.5 110.5v1087h322v-1079q0 -207 -108.5 -322.5t-329.5 -115.5q-74 0 -142 18zM115 1389q0 84 53 138t135 54q80 0 134.5 -55.5t54.5 -137t-54.5 -136t-134.5 -54.5q-82 0 -135 54.5t-53 136.5z" />
<glyph unicode="k" horiz-adv-x="1146" d="M129 0v1567h322v-877h77l195 354h379l-318 -501l349 -543h-396l-219 383h-67v-383h-322z" />
<glyph unicode="l" horiz-adv-x="577" d="M129 0v1567h322v-1567h-322z" />
<glyph unicode="m" horiz-adv-x="1734" d="M129 0v1044h299v-157q96 184 305 184t273 -190q106 190 313 190q143 0 220 -96t77 -277v-698h-322v645q0 68 -16 98.5t-59 30.5q-76 0 -131.5 -90t-55.5 -262v-422h-321v649q0 63 -15.5 94t-58.5 31q-78 0 -133 -90t-55 -262v-422h-320z" />
<glyph unicode="n" horiz-adv-x="1165" d="M129 0v1044h299v-159q100 186 311 186q152 0 230 -96t78 -277v-698h-324v647q0 66 -16.5 96.5t-61.5 30.5q-82 0 -138 -92t-56 -262v-420h-322z" />
<glyph unicode="o" horiz-adv-x="1146" d="M86 508q0 162 32 264t109 178q131 127 355 127q219 0 342 -112q76 -70 106.5 -172.5t30.5 -257.5q0 -160 -32 -263.5t-111 -179.5q-129 -123 -353 -123q-217 0 -340 113q-78 70 -108.5 170t-30.5 256zM416 514q0 -188 47 -240q33 -37 106.5 -36.5t110.5 43.5 q53 61 53 251q0 180 -49 238q-31 37 -102 37q-82 0 -115 -41q-51 -59 -51 -252z" />
<glyph unicode="p" horiz-adv-x="1183" d="M129 -471v1515h303l2 -137q109 164 303 164q135 0 228 -88q133 -131 133 -448q0 -328 -146 -461q-109 -98 -276 -99q-135 0 -225 74v-520h-322zM438 438q0 -96 45 -149q43 -51 129 -51t117 61t31 227q0 147 -23.5 207t-83.5 60q-74 0 -137 -86q-78 -109 -78 -269z" />
<glyph unicode="q" d="M86 504q0 328 133 461q98 102 268 102q193 0 289 -133l6 110h271v-1515h-320v582q-109 -137 -284 -138q-135 0 -232 93q-131 129 -131 438zM424 508q0 -143 22.5 -202.5t90.5 -59.5q74 0 133 73q74 92 73 242q0 115 -53 176q-53 59 -135 60q-80 0 -105.5 -62.5 t-25.5 -226.5z" />
<glyph unicode="r" horiz-adv-x="841" d="M129 0v1044h303l-2 -170q86 199 279 199q53 0 104 -20l-41 -305q-45 12 -78 12q-246 0 -245 -414v-346h-320z" />
<glyph unicode="s" horiz-adv-x="909" d="M41 109l147 196q92 -90 250 -90q123 0 123 84q0 39 -51 64.5t-125 47t-147.5 54.5t-125 102.5t-51.5 173.5q0 158 122 242t309 84q236 0 348 -121l-148 -194q-96 76 -221 75q-111 0 -111 -73q0 -35 51.5 -58.5t125 -46t146.5 -55.5t124 -104.5t51 -176.5 q0 -119 -66.5 -197.5t-160.5 -109.5t-211 -31q-260 1 -379 134z" />
<glyph unicode="t" horiz-adv-x="888" d="M57 748v278h152v287l321 28v-315h258v-278h-258v-336q0 -90 18.5 -117t98.5 -27q76 0 133 15l19 -269q-111 -27 -219 -26q-209 0 -290 97t-81 302v361h-152z" />
<glyph unicode="u" horiz-adv-x="1159" d="M129 344v700h320v-651q0 -127 79 -127q74 0 128.5 91.5t54.5 258.5v428h319v-1044h-297v160q-100 -186 -305 -187q-299 0 -299 371z" />
<glyph unicode="v" horiz-adv-x="1071" d="M20 1044h347l176 -704l172 704h336l-336 -1044h-363z" />
<glyph unicode="w" horiz-adv-x="1566" d="M27 1044h323l125 -684l146 664h331l146 -659l125 679h317l-260 -1044h-350l-150 664l-151 -664h-353z" />
<glyph unicode="x" horiz-adv-x="1105" d="M25 0l319 539l-293 505h365l145 -296l139 296h359l-281 -505l303 -539h-364l-164 319l-164 -319h-364z" />
<glyph unicode="y" horiz-adv-x="1095" d="M20 1044h342l199 -802l180 802h334l-280 -983q-76 -266 -201 -402t-313 -136q-135 0 -205 49l96 260q41 -25 100 -25q78 0 124 52.5t81 179.5h-147z" />
<glyph unicode="z" horiz-adv-x="952" d="M76 0v264l389 492h-369v276h762v-262l-391 -494h401v-276h-792z" />
<glyph unicode="{" horiz-adv-x="774" d="M6 457v276q111 4 150 41t39 158v225q0 160 89 250t246 90h156v-283h-72q-76 0 -97 -29.5t-21 -105.5v-182q0 -246 -197 -301q197 -57 197 -301v-186q0 -76 21.5 -106t96.5 -30h72v-278h-156q-156 0 -245.5 85t-89.5 245v235q0 119 -39 156t-150 41z" />
<glyph unicode="|" horiz-adv-x="608" d="M141 -471v2038h326v-2038h-326z" />
<glyph unicode="}" horiz-adv-x="774" d="M90 -23h70q76 0 98.5 29t22.5 107v180q0 250 194 303q-195 57 -194 301v186q0 74 -22.5 105t-98.5 31h-70v276h156q156 0 245 -85t89 -245v-235q0 -117 38.5 -154t149.5 -41v-276q-109 -4 -148.5 -41t-39.5 -158v-225q0 -160 -89.5 -250t-244.5 -90h-156v282z" />
<glyph unicode="~" horiz-adv-x="1161" d="M72 565q92 96 165.5 142.5t163.5 46.5q80 0 202 -54.5t167 -54.5q63 0 150 90l172 -190q-96 -96 -169 -142.5t-163 -46.5q-80 0 -202 54.5t-167 54.5q-57 0 -149 -92z" />
<glyph unicode="&#xa1;" horiz-adv-x="681" d="M109 1094q0 80 53 133t133 53q82 0 135 -53t53 -133t-53 -134.5t-135 -54.5q-80 0 -133 53.5t-53 135.5zM123 -152l18 920h310l18 -920h-346z" />
<glyph unicode="&#xa2;" d="M109 719q0 326 145 479q82 90 213 127l-4 242h344l-2 -224q178 -27 282 -131l-192 -225q-84 76 -219 76q-133 0 -175 -74t-42 -258q0 -190 38 -267t150 -77q147 0 256 123l207 -213q-123 -135 -305 -176l2 -234h-344l4 236q-133 35 -217 125q-141 152 -141 471z" />
<glyph unicode="&#xa3;" d="M102 0v276h134v285h-134v277h134v77q0 96 25.5 183.5t80.5 164t158.5 123t242.5 46.5q240 0 359 -121l-189 -221q-68 63 -174 63t-138 -59.5t-32 -186.5v-69h303v-277h-303v-285h553v-276h-1020z" />
<glyph unicode="&#xa4;" d="M-31 1153l197 199l201 -201q100 45 227 45t221 -43l197 195l198 -195l-200 -195q43 -94 43 -223t-43 -223l202 -199l-196 -196l-199 196q-92 -45 -229 -45q-133 0 -226 45l-192 -198l-199 198l197 197q-41 98 -41 219q0 125 45 227zM401 735q0 -215 189 -215 q190 0 190 215q0 106 -45 156.5t-143 50.5q-100 0 -145.5 -51.5t-45.5 -155.5z" />
<glyph unicode="&#xa5;" d="M-25 1413h379l234 -549l248 549h370l-288 -532h184v-275h-334l-20 -39v-71h354v-277h-354v-219h-328v219h-330v277h330v71l-21 39h-309v275h166z" />
<glyph unicode="&#xa6;" horiz-adv-x="608" d="M141 303h326v-774h-326v774zM141 791v776h326v-776h-326z" />
<glyph unicode="&#xa7;" horiz-adv-x="1021" d="M31 662q0 184 131 299q-57 78 -58 188q0 158 130.5 243t314.5 85q231 0 362 -105l-131 -205q-94 70 -250 70q-135 0 -135 -90q0 -39 58.5 -68.5t142.5 -58.5t168 -71t142.5 -130t58.5 -215q0 -180 -125 -295q63 -80 63 -192q0 -156 -135 -239t-309 -83q-102 0 -212 29 t-179 84l133 211q113 -84 274 -84q141 0 141 92q0 43 -60 71.5t-146 55.5t-172 66.5t-146.5 127t-60.5 214.5zM309 680q0 -27 8.5 -49.5t26.5 -42t35.5 -32.5t50.5 -28.5t54 -23.5l64 -25l62 -24q76 61 76 135q0 31 -13.5 57.5t-29.5 43t-53 37t-57.5 29.5t-73.5 28.5 t-72 27.5q-78 -59 -78 -133z" />
<glyph unicode="&#xa8;" horiz-adv-x="409" d="M-162 1368q0 70 44 115t109.5 45t112 -45t46.5 -115q0 -66 -46.5 -110t-112 -44t-109.5 44t-44 110zM260 1368q0 70 44 115t109.5 45t111.5 -45t46 -115q0 -66 -46 -110t-111.5 -44t-109.5 44t-44 110z" />
<glyph unicode="&#xa9;" horiz-adv-x="1613" d="M84 709q0 322 192.5 538.5t530.5 216.5t530.5 -218t192.5 -541.5t-193.5 -540.5t-529.5 -217q-225 0 -392 105.5t-249 276.5t-82 380zM311 702q0 -242 124 -384t374 -142q248 0 368.5 142.5t120.5 386.5q0 246 -119.5 389t-365.5 143q-250 0 -376 -145.5t-126 -389.5z M442 690q0 205 101 318q104 113 295 112q182 0 282 -90l-147 -201q-57 41 -137 41q-59 0 -80 -33.5t-21 -129.5q0 -104 20.5 -139.5t69.5 -35.5q76 0 146 64l166 -180q-131 -131 -328 -131q-162 0 -258 90q-109 102 -109 315z" />
<glyph unicode="&#xaa;" horiz-adv-x="716" d="M47 1169q0 113 90 164q76 45 221 45h62v11q0 39 -19.5 53t-68.5 14q-88 0 -148 -51l-106 123q88 88 264 88q145 0 212 -54.5t67 -187.5v-381h-185l-2 68q-68 -86 -184 -86q-88 0 -144 49q-59 49 -59 145zM92 737v168h529v-168h-529zM252 1176q0 -43 39 -43q35 0 80 35.5 t53 78.5h-70q-55 0 -78.5 -12t-23.5 -59z" />
<glyph unicode="&#xab;" horiz-adv-x="1173" d="M37 555l362 463l193 -150l-234 -313l234 -309l-193 -154zM549 555l362 463l195 -150l-236 -313l236 -309l-195 -154z" />
<glyph unicode="&#xac;" horiz-adv-x="1163" d="M125 520v277h889v-670h-309v393h-580z" />
<glyph unicode="&#xad;" horiz-adv-x="653" d="M29 408v294h596v-294h-596z" />
<glyph unicode="&#xae;" horiz-adv-x="1193" d="M86 1202q0 223 142.5 373.5t367.5 150.5t368.5 -150.5t143.5 -373.5q0 -221 -144.5 -371.5t-369.5 -150.5q-223 0 -365.5 150.5t-142.5 371.5zM260 1202q0 -160 89 -255t245 -95q158 0 248 95t90 255q0 164 -88 259t-246 95t-248 -96t-90 -258zM373 946v516h256 q213 0 213 -157q0 -117 -105 -146q59 -10 75.5 -52t25.5 -161h-176q-8 88 -17.5 116t-32.5 28h-71v-144h-168zM541 1321v-92h41q47 0 66.5 10t19.5 43q0 25 -11.5 32t-42.5 7h-73z" />
<glyph unicode="&#xaf;" horiz-adv-x="409" d="M-127 1231v237h664v-237h-664z" />
<glyph unicode="&#xb0;" horiz-adv-x="989" d="M96 1116q0 176 108.5 286.5t295 110.5t290 -105t103.5 -280q0 -178 -107.5 -287.5t-296.5 -109.5q-186 0 -289.5 104.5t-103.5 280.5zM358 1114q0 -158 131 -158q70 0 105 49.5t35 124.5q0 156 -129 156q-70 0 -106 -48t-36 -124z" />
<glyph unicode="&#xb1;" horiz-adv-x="1161" d="M164 45v258h833v-258h-833zM164 647v260h278v254h279v-254h276v-260h-276v-262h-279v262h-278z" />
<glyph unicode="&#xb2;" horiz-adv-x="788" d="M66 1706q109 121 319 121q139 0 226 -58.5t87 -189.5q0 -96 -49 -149.5t-147 -102.5q-111 -55 -144.5 -80.5t-33.5 -60.5h366v-193h-610v146q0 115 55 176t199 135l76 40q20 11 39.5 33.5t19.5 51.5q0 61 -100 61q-96 0 -166 -65z" />
<glyph unicode="&#xb3;" horiz-adv-x="788" d="M57 1061l109 147q61 -49 178 -49q119 0 119 80q0 43 -31 59.5t-102 16.5h-129v180h125q127 0 127 76q0 41 -26 55t-81 14q-117 0 -176 -47l-109 146q90 88 297 88q137 0 230 -58q94 -61 94 -165q0 -143 -143 -191q152 -43 151 -196q0 -111 -94 -177q-88 -63 -244 -63 q-213 0 -295 84z" />
<glyph unicode="&#xb4;" horiz-adv-x="409" d="M-35 1288l334 404l197 -170l-359 -387z" />
<glyph unicode="&#xb5;" horiz-adv-x="1159" d="M129 -471v1515h320v-651q0 -125 79 -125q74 0 128.5 92.5t54.5 262.5v421h319v-1044h-297l2 160q-92 -180 -286 -180h-19l21 -451h-322z" />
<glyph unicode="&#xb6;" horiz-adv-x="1660" d="M63 946q0 164 37 270.5t110 155.5t145.5 65.5t179.5 16.5h987v-1927h-305v1651h-199v-1651h-303v926h-178q-78 0 -135.5 7t-126 35.5t-110.5 79t-72 145.5t-30 226zM373 952q0 -139 42 -179t150 -40h150v441h-156q-111 0 -148.5 -51.5t-37.5 -170.5z" />
<glyph unicode="&#xb7;" horiz-adv-x="579" d="M96 555q0 84 55.5 139.5t137.5 55.5q84 0 139 -55.5t55 -139.5t-55 -139.5t-139 -55.5q-82 0 -137.5 56.5t-55.5 138.5z" />
<glyph unicode="&#xb8;" horiz-adv-x="409" d="M-127 -373l125 129q49 -63 104 -63q61 0 62 55q0 66 -119 98l21 201h192l-10 -117q129 -59 129 -182q0 -100 -68.5 -168.5t-189.5 -68.5q-152 -1 -246 116z" />
<glyph unicode="&#xb9;" horiz-adv-x="788" d="M43 1620l254 188h254v-616h160v-199h-602v199h213v389l-154 -117z" />
<glyph unicode="&#xba;" horiz-adv-x="763" d="M68 1288q0 174 96 258q82 72 223 72q133 0 213 -64q94 -78 94 -249.5t-94 -255.5q-82 -72 -225 -72q-137 0 -215 63q-92 74 -92 248zM111 737v168h540v-168h-540zM299 1288q0 -88 25 -110q16 -16 53 -16.5t61 20.5q25 31 25 127q0 88 -29 110q-14 12 -49 13 q-39 0 -57 -19q-29 -29 -29 -125z" />
<glyph unicode="&#xbb;" horiz-adv-x="1173" d="M70 244l233 311l-233 309l192 154l363 -463l-363 -463zM582 244l235 311l-235 309l192 154l365 -463l-365 -463z" />
<glyph unicode="&#xbc;" horiz-adv-x="1953" d="M102 1239l222 174h247v-604h146v-191h-555v191h192v391l-135 -115zM262 37l1254 1487l178 -150l-1254 -1485zM1214 133v186l144 476h205l-144 -471h113v268h194v-266h105v-193h-105v-133h-198v133h-314z" />
<glyph unicode="&#xbd;" horiz-adv-x="1953" d="M102 1239l222 174h247v-604h146v-191h-555v191h192v391l-135 -115zM262 37l1254 1487l178 -150l-1254 -1485zM1221 696q96 115 297 115q293 0 292 -238q0 -94 -45 -146t-137 -101q-100 -53 -132 -80t-32 -62l338 2v-186h-567v141q0 111 51 171.5t182 131.5q51 27 71 39.5 t37 35t17 50.5q0 59 -92 60q-90 0 -151 -64z" />
<glyph unicode="&#xbe;" horiz-adv-x="1953" d="M98 684l105 141q55 -47 174 -47q115 0 115 80q0 43 -31 59.5t-101 16.5h-124v172h120q125 0 125 78q0 39 -24.5 53t-77.5 14q-113 0 -174 -45l-105 140q86 84 289 84q135 0 221 -56q92 -59 92 -162q0 -137 -139 -186q147 -39 148 -190q0 -109 -93 -172q-88 -61 -235 -62 q-205 0 -285 82zM262 37l1254 1487l178 -150l-1254 -1485zM1214 133v186l144 476h205l-144 -471h113v268h194v-266h105v-193h-105v-133h-198v133h-314z" />
<glyph unicode="&#xbf;" horiz-adv-x="972" d="M33 160q0 88 36.5 157.5t88 109.5t103.5 70.5t89 63.5t37 68q0 33 -31 80l230 102q90 -111 90 -211q0 -70 -36 -127t-86 -92t-100.5 -65.5t-86 -65.5t-35.5 -72q0 -92 123 -92q133 0 239 88l162 -209q-158 -133 -393 -133q-170 0 -287 72q-143 86 -143 256zM225 1094 q0 82 53.5 134t135.5 52q80 0 133 -52t53 -134t-53 -135.5t-133 -53.5q-82 0 -135.5 53.5t-53.5 135.5z" />
<glyph unicode="&#xc0;" horiz-adv-x="1273" d="M-6 0l444 1413h398l444 -1413h-348l-76 268h-448l-76 -268h-338zM270 1784l146 217l440 -313l-119 -185zM479 532h307l-153 547z" />
<glyph unicode="&#xc1;" horiz-adv-x="1273" d="M-6 0l444 1413h398l444 -1413h-348l-76 268h-448l-76 -268h-338zM389 1688l440 313l146 -217l-467 -281zM479 532h307l-153 547z" />
<glyph unicode="&#xc2;" horiz-adv-x="1273" d="M-6 0l444 1413h398l444 -1413h-348l-76 268h-448l-76 -268h-338zM287 1692l354 247l346 -243l-117 -187l-233 146l-236 -148zM479 532h307l-153 547z" />
<glyph unicode="&#xc3;" horiz-adv-x="1273" d="M-6 0l444 1413h398l444 -1413h-348l-76 268h-448l-76 -268h-338zM238 1765q74 78 135 117t141 39q61 0 145 -34t119 -34q57 0 129 76l129 -162q-72 -80 -133 -118.5t-141 -38.5q-63 0 -146.5 33.5t-119.5 33.5q-59 0 -129 -73zM479 532h307l-153 547z" />
<glyph unicode="&#xc4;" horiz-adv-x="1273" d="M-6 0l444 1413h398l444 -1413h-348l-76 268h-448l-76 -268h-338zM270 1737q0 70 44 114.5t110 44.5q68 0 113 -45t45 -114q0 -66 -46.5 -110t-111.5 -44q-63 0 -108.5 44t-45.5 110zM479 532h307l-153 547zM692 1737q0 70 44 114.5t110 44.5q68 0 113 -45t45 -114 q0 -66 -46.5 -110t-112 -44t-109.5 44t-44 110z" />
<glyph unicode="&#xc5;" horiz-adv-x="1273" d="M-6 0l444 1413h398l444 -1413h-348l-76 268h-448l-76 -268h-338zM356 1759q0 113 79 178.5t202 65.5t202 -66.5t79 -177.5q0 -113 -79 -178t-202 -65t-202 66t-79 177zM479 532h307l-153 547zM551 1757q0 -82 86 -82t86 84q0 82 -84 82q-88 0 -88 -84z" />
<glyph unicode="&#xc6;" horiz-adv-x="1832" d="M-49 0l657 1413h1108v-280h-504v-277h461v-278h-461v-299h514v-279h-843v291h-441l-125 -291h-366zM555 551h328v582h-76z" />
<glyph unicode="&#xc7;" horiz-adv-x="1157" d="M84 690q0 416 168 592q145 156 422 156q283 0 428 -156l-180 -227q-100 94 -258 94q-131 0 -183 -80q-53 -82 -53 -385q0 -274 61 -356q49 -68 154 -68q158 0 283 141l194 -204q-174 -201 -428 -220l-4 -47q129 -59 129 -182q0 -100 -68.5 -168.5t-189.5 -68.5 q-150 0 -244 116l123 129q49 -63 105 -63q63 0 63 55q0 66 -121 98l15 140q-156 29 -252 131q-164 165 -164 573z" />
<glyph unicode="&#xc8;" horiz-adv-x="1101" d="M141 0v1413h846v-276h-522v-283h475v-276h-475v-304h532v-274h-856zM211 1784l145 217l441 -313l-119 -185z" />
<glyph unicode="&#xc9;" horiz-adv-x="1101" d="M141 0v1413h846v-276h-522v-283h475v-276h-475v-304h532v-274h-856zM330 1688l440 313l145 -217l-466 -281z" />
<glyph unicode="&#xca;" horiz-adv-x="1101" d="M141 0v1413h846v-276h-522v-283h475v-276h-475v-304h532v-274h-856zM227 1692l355 247l346 -243l-117 -187l-233 146l-236 -148z" />
<glyph unicode="&#xcb;" horiz-adv-x="1101" d="M141 0v1413h846v-276h-522v-283h475v-276h-475v-304h532v-274h-856zM211 1737q0 70 44 114.5t109.5 44.5t111.5 -45t46 -114q0 -66 -46 -110t-111.5 -44t-109.5 44t-44 110zM633 1737q0 70 44 114.5t109.5 44.5t111.5 -45t46 -114q0 -66 -46 -110t-111.5 -44t-109.5 44 t-44 110z" />
<glyph unicode="&#xcc;" horiz-adv-x="612" d="M-59 1784l145 217l440 -313l-118 -185zM141 0v1413h332v-1413h-332z" />
<glyph unicode="&#xcd;" horiz-adv-x="612" d="M59 1688l441 313l145 -217l-467 -281zM141 0v1413h332v-1413h-332z" />
<glyph unicode="&#xce;" horiz-adv-x="612" d="M-43 1692l354 247l346 -243l-116 -187l-234 146l-235 -148zM141 0v1413h332v-1413h-332z" />
<glyph unicode="&#xcf;" horiz-adv-x="612" d="M-59 1737q0 70 44 114.5t109.5 44.5t111.5 -45t46 -114q0 -66 -46 -110t-111.5 -44t-109.5 44t-44 110zM141 0v1413h332v-1413h-332zM362 1737q0 70 44.5 114.5t110 44.5t111.5 -45t46 -114q0 -66 -46 -110t-111.5 -44t-110 44t-44.5 110z" />
<glyph unicode="&#xd0;" horiz-adv-x="1376" d="M45 578v280h117v555h557q285 0 422 -141q152 -154 151 -549q0 -399 -159 -571q-145 -152 -408 -152h-563v578h-117zM483 289h217q147 0 199 82q47 74 47 342q0 279 -53 346q-51 66 -191 65h-219v-266h203v-280h-203v-289z" />
<glyph unicode="&#xd1;" horiz-adv-x="1460" d="M141 0v1413h420l451 -964l-11 964h318v-1413h-420l-450 965l10 -965h-318zM371 1765q74 78 135 117t141 39q61 0 145.5 -34t118.5 -34q57 0 129 76l129 -162q-72 -80 -133 -118.5t-141 -38.5q-63 0 -146 33.5t-120 33.5q-59 0 -129 -73z" />
<glyph unicode="&#xd2;" horiz-adv-x="1404" d="M84 692q0 420 174 594q158 158 453 158q299 0 450 -156q160 -162 160 -569q0 -418 -174 -592q-162 -158 -455 -158q-299 0 -448 156q-160 166 -160 567zM336 1784l145 217l441 -313l-119 -185zM436 705q0 -307 74 -390q59 -66 186 -65q135 0 201 78q72 88 72 379 q0 307 -74 389q-61 68 -186 67q-135 0 -201 -78q-72 -87 -72 -380z" />
<glyph unicode="&#xd3;" horiz-adv-x="1404" d="M84 692q0 420 174 594q158 158 453 158q299 0 450 -156q160 -162 160 -569q0 -418 -174 -592q-162 -158 -455 -158q-299 0 -448 156q-160 166 -160 567zM436 705q0 -307 74 -390q59 -66 186 -65q135 0 201 78q72 88 72 379q0 307 -74 389q-61 68 -186 67q-135 0 -201 -78 q-72 -87 -72 -380zM455 1688l440 313l145 -217l-467 -281z" />
<glyph unicode="&#xd4;" horiz-adv-x="1404" d="M84 692q0 420 174 594q158 158 453 158q299 0 450 -156q160 -162 160 -569q0 -418 -174 -592q-162 -158 -455 -158q-299 0 -448 156q-160 166 -160 567zM352 1692l355 247l346 -243l-117 -187l-234 146l-235 -148zM436 705q0 -307 74 -390q59 -66 186 -65q135 0 201 78 q72 88 72 379q0 307 -74 389q-61 68 -186 67q-135 0 -201 -78q-72 -87 -72 -380z" />
<glyph unicode="&#xd5;" horiz-adv-x="1404" d="M84 692q0 420 174 594q158 158 453 158q299 0 450 -156q160 -162 160 -569q0 -418 -174 -592q-162 -158 -455 -158q-299 0 -448 156q-160 166 -160 567zM303 1765q74 78 135.5 117t141.5 39q61 0 145 -34t119 -34q57 0 129 76l129 -162q-72 -80 -133.5 -118.5 t-141.5 -38.5q-63 0 -146 33.5t-120 33.5q-59 0 -129 -73zM436 705q0 -307 74 -390q59 -66 186 -65q135 0 201 78q72 88 72 379q0 307 -74 389q-61 68 -186 67q-135 0 -201 -78q-72 -87 -72 -380z" />
<glyph unicode="&#xd6;" horiz-adv-x="1404" d="M84 692q0 420 174 594q158 158 453 158q299 0 450 -156q160 -162 160 -569q0 -418 -174 -592q-162 -158 -455 -158q-299 0 -448 156q-160 166 -160 567zM336 1737q0 70 44 114.5t109 44.5q68 0 113 -45t45 -114q0 -66 -46 -110t-112 -44q-63 0 -108 44t-45 110zM436 705 q0 -307 74 -390q59 -66 186 -65q135 0 201 78q72 88 72 379q0 307 -74 389q-61 68 -186 67q-135 0 -201 -78q-72 -87 -72 -380zM758 1737q0 70 44 114.5t109 44.5q68 0 113 -45t45 -114q0 -66 -46 -110t-111.5 -44t-109.5 44t-44 110z" />
<glyph unicode="&#xd7;" horiz-adv-x="1161" d="M109 279l278 276l-278 276l198 197l275 -278l274 278l197 -197l-277 -276l277 -276l-197 -197l-274 280l-277 -280z" />
<glyph unicode="&#xd8;" horiz-adv-x="1406" d="M55 -23l135 207q-111 164 -110 506q0 412 162 586q158 168 467 168q156 0 268 -41l123 188l237 -155l-133 -207q111 -166 111 -508q0 -426 -180 -598q-158 -154 -449 -154q-150 0 -268 43l-123 -190zM393 705q0 -121 8 -195l428 661q-51 18 -124 19q-174 0 -244 -100 q-68 -94 -68 -385zM565 240q53 -16 123 -17q178 0 248 105q63 96 63 379q0 113 -8 192z" />
<glyph unicode="&#xd9;" horiz-adv-x="1388" d="M141 498v915h332v-909q0 -131 39 -186.5t184 -55.5q139 0 179 54.5t40 187.5v909h332v-905q0 -236 -94 -354q-139 -178 -469 -179q-309 0 -442 158q-101 121 -101 365zM328 1784l145 217l440 -313l-118 -185z" />
<glyph unicode="&#xda;" horiz-adv-x="1388" d="M141 498v915h332v-909q0 -131 39 -186.5t184 -55.5q139 0 179 54.5t40 187.5v909h332v-905q0 -236 -94 -354q-139 -178 -469 -179q-309 0 -442 158q-101 121 -101 365zM446 1688l441 313l145 -217l-467 -281z" />
<glyph unicode="&#xdb;" horiz-adv-x="1388" d="M141 498v915h332v-909q0 -131 39 -186.5t184 -55.5q139 0 179 54.5t40 187.5v909h332v-905q0 -236 -94 -354q-139 -178 -469 -179q-309 0 -442 158q-101 121 -101 365zM344 1692l354 247l346 -243l-116 -187l-234 146l-235 -148z" />
<glyph unicode="&#xdc;" horiz-adv-x="1388" d="M141 498v915h332v-909q0 -131 39 -186.5t184 -55.5q139 0 179 54.5t40 187.5v909h332v-905q0 -236 -94 -354q-139 -178 -469 -179q-309 0 -442 158q-101 121 -101 365zM328 1737q0 70 44 114.5t109 44.5q68 0 113 -45t45 -114q0 -66 -46 -110t-112 -44q-63 0 -108 44 t-45 110zM750 1737q0 70 44 114.5t109 44.5q68 0 113 -45t45 -114q0 -66 -46 -110t-111.5 -44t-109.5 44t-44 110z" />
<glyph unicode="&#xdd;" horiz-adv-x="1163" d="M-20 1413h378l222 -551l227 551h379l-445 -887v-526h-331v526zM334 1688l440 313l146 -217l-467 -281z" />
<glyph unicode="&#xde;" horiz-adv-x="1257" d="M141 0v1413h332v-229h205q211 0 330 -84q166 -115 166 -402q0 -297 -170 -411q-119 -84 -336 -84h-195v-203h-332zM473 487h189q92 0 129 37q41 41 40 168q0 141 -49 180q-33 27 -129 27h-180v-412z" />
<glyph unicode="&#xdf;" horiz-adv-x="1323" d="M129 0v930q0 78 10.5 149.5t44 160.5t91 153.5t161 109.5t242.5 45q231 0 358 -127q119 -121 119 -366q0 -102 -14 -203h-27q-82 0 -121 -2t-81 -9t-57 -25.5t-15 -49.5q0 -39 44 -63.5t107.5 -45t128 -52.5t108.5 -102.5t44 -178.5q0 -172 -135 -267q-113 -82 -281 -82 q-94 0 -190.5 28t-153.5 85l131 219q94 -88 231 -88q49 0 70 17.5t21 58.5q0 43 -44 71.5t-107.5 50t-128 53.5t-109 101.5t-44.5 173.5q0 133 86 220q80 80 224 106q4 20 4 45q0 84 -37 123q-33 35 -115 35q-61 0 -107 -17.5t-72 -46t-41 -71.5t-19 -83t-4 -93v-963h-322z " />
<glyph unicode="&#xe0;" horiz-adv-x="1069" d="M51 297q0 182 129 270q123 84 365 84h110v27q0 86 -33.5 117.5t-119.5 31.5q-152 0 -246 -92l-158 183q139 150 418 149q225 0 329.5 -92t104.5 -309v-666h-272l-2 133q-109 -160 -303 -160q-141 0 -230 82q-92 86 -92 242zM229 1522l199 170l334 -404l-172 -153z M352 311q0 -104 74 -104q72 0 148.5 68.5t87.5 170.5h-132q-94 0 -136 -25.5t-42 -109.5z" />
<glyph unicode="&#xe1;" horiz-adv-x="1069" d="M51 297q0 182 129 270q123 84 365 84h110v27q0 86 -33.5 117.5t-119.5 31.5q-152 0 -246 -92l-158 183q139 150 418 149q225 0 329.5 -92t104.5 -309v-666h-272l-2 133q-109 -160 -303 -160q-141 0 -230 82q-92 86 -92 242zM297 1288l334 404l196 -170l-358 -387z M352 311q0 -104 74 -104q72 0 148.5 68.5t87.5 170.5h-132q-94 0 -136 -25.5t-42 -109.5z" />
<glyph unicode="&#xe2;" horiz-adv-x="1069" d="M51 297q0 182 129 270q123 84 365 84h110v27q0 86 -33.5 117.5t-119.5 31.5q-152 0 -246 -92l-158 183q139 150 418 149q225 0 329.5 -92t104.5 -309v-666h-272l-2 133q-109 -160 -303 -160q-141 0 -230 82q-92 86 -92 242zM207 1303l334 335l325 -331l-157 -160 l-172 182l-175 -184zM352 311q0 -104 74 -104q72 0 148.5 68.5t87.5 170.5h-132q-94 0 -136 -25.5t-42 -109.5z" />
<glyph unicode="&#xe3;" horiz-adv-x="1069" d="M51 297q0 182 129 270q123 84 365 84h110v27q0 86 -33.5 117.5t-119.5 31.5q-152 0 -246 -92l-158 183q139 150 418 149q225 0 329.5 -92t104.5 -309v-666h-272l-2 133q-109 -160 -303 -160q-141 0 -230 82q-92 86 -92 242zM137 1397q74 78 135.5 116.5t141.5 38.5 q61 0 145 -33.5t119 -33.5q57 0 129 76l129 -162q-72 -80 -133.5 -119t-140.5 -39q-63 0 -146.5 34t-120.5 34q-59 0 -129 -74zM352 311q0 -104 74 -104q72 0 148.5 68.5t87.5 170.5h-132q-94 0 -136 -25.5t-42 -109.5z" />
<glyph unicode="&#xe4;" horiz-adv-x="1069" d="M51 297q0 182 129 270q123 84 365 84h110v27q0 86 -33.5 117.5t-119.5 31.5q-152 0 -246 -92l-158 183q139 150 418 149q225 0 329.5 -92t104.5 -309v-666h-272l-2 133q-109 -160 -303 -160q-141 0 -230 82q-92 86 -92 242zM170 1368q0 70 44 115t109.5 45t111.5 -45 t46 -115q0 -66 -46 -110t-111.5 -44t-109.5 44t-44 110zM352 311q0 -104 74 -104q72 0 148.5 68.5t87.5 170.5h-132q-94 0 -136 -25.5t-42 -109.5zM592 1368q0 70 44 115t109.5 45t111.5 -45t46 -115q0 -66 -46 -110t-111.5 -44t-109.5 44t-44 110z" />
<glyph unicode="&#xe5;" horiz-adv-x="1069" d="M51 297q0 182 129 270q123 84 365 84h110v27q0 86 -33.5 117.5t-119.5 31.5q-152 0 -246 -92l-158 183q139 150 418 149q225 0 329.5 -92t104.5 -309v-666h-272l-2 133q-109 -160 -303 -160q-141 0 -230 82q-92 86 -92 242zM252 1432q0 117 79 187.5t206 70.5 q125 0 204.5 -71t79.5 -187q0 -115 -79.5 -186.5t-204.5 -71.5t-205 71.5t-80 186.5zM352 311q0 -104 74 -104q72 0 148.5 68.5t87.5 170.5h-132q-94 0 -136 -25.5t-42 -109.5zM451 1430q0 -90 86 -90.5t86 94.5q0 88 -84 88q-88 0 -88 -92z" />
<glyph unicode="&#xe6;" horiz-adv-x="1675" d="M51 301q0 90 35 155.5t85 101.5t126 55.5t136.5 24.5t135.5 5h101v31q0 80 -36 116.5t-132 36.5q-154 0 -248 -86l-145 189q137 137 391 137q231 0 327 -143q109 145 328 145q213 0 321.5 -135t108.5 -350q0 -51 -8 -133l-606 -7q2 -115 34.5 -168t137.5 -53 q141 0 272 113l162 -193q-170 -168 -430 -168q-254 0 -359 183q-127 -182 -372 -183q-174 0 -269.5 86t-95.5 240zM369 311q0 -57 20.5 -81.5t75.5 -24.5q102 0 151.5 73.5t55.5 172.5h-109q-111 0 -152.5 -27t-41.5 -113zM977 643l295 -2q-2 109 -30 153t-109 44 q-88 0 -121 -47.5t-35 -147.5z" />
<glyph unicode="&#xe7;" horiz-adv-x="983" d="M86 510q0 295 139 434q127 123 350 123q227 0 345 -123l-181 -215q-66 57 -161 57q-94 0 -125 -58t-31 -204q0 -147 27.5 -208.5t105.5 -61.5q104 0 188 94l191 -203q-127 -141 -328 -163l-4 -52q129 -59 129 -182q0 -100 -67.5 -168.5t-190.5 -68.5q-150 0 -244 116 l125 129q49 -63 105 -63q61 0 61 55q0 66 -119 98l15 144q-127 27 -207 112q-123 134 -123 408z" />
<glyph unicode="&#xe8;" horiz-adv-x="1114" d="M86 502q0 295 137 438q127 131 359 131q442 0 442 -504q0 -57 -8 -123l-617 -6q2 -113 37 -164t139 -51q156 0 277 111l158 -184q-172 -174 -445 -175q-215 0 -338 107q-141 125 -141 420zM256 1522l199 170l333 -404l-172 -153zM403 649h316q-2 100 -31 144.5t-119 44.5 t-126 -47.5t-40 -141.5z" />
<glyph unicode="&#xe9;" horiz-adv-x="1114" d="M86 502q0 295 137 438q127 131 359 131q442 0 442 -504q0 -57 -8 -123l-617 -6q2 -113 37 -164t139 -51q156 0 277 111l158 -184q-172 -174 -445 -175q-215 0 -338 107q-141 125 -141 420zM324 1288l333 404l197 -170l-358 -387zM403 649h316q-2 100 -31 144.5t-119 44.5 t-126 -47.5t-40 -141.5z" />
<glyph unicode="&#xea;" horiz-adv-x="1114" d="M86 502q0 295 137 438q127 131 359 131q442 0 442 -504q0 -57 -8 -123l-617 -6q2 -113 37 -164t139 -51q156 0 277 111l158 -184q-172 -174 -445 -175q-215 0 -338 107q-141 125 -141 420zM233 1303l334 335l326 -331l-158 -160l-172 182l-174 -184zM403 649h316 q-2 100 -31 144.5t-119 44.5t-126 -47.5t-40 -141.5z" />
<glyph unicode="&#xeb;" horiz-adv-x="1114" d="M86 502q0 295 137 438q127 131 359 131q442 0 442 -504q0 -57 -8 -123l-617 -6q2 -113 37 -164t139 -51q156 0 277 111l158 -184q-172 -174 -445 -175q-215 0 -338 107q-141 125 -141 420zM197 1368q0 70 44 115t109 45q68 0 113 -45t45 -115q0 -66 -46 -110t-112 -44 q-63 0 -108 44t-45 110zM403 649h316q-2 100 -31 144.5t-119 44.5t-126 -47.5t-40 -141.5zM618 1368q0 70 44.5 115t109.5 45q68 0 113 -45t45 -115q0 -66 -46 -110t-111.5 -44t-110 44t-44.5 110z" />
<glyph unicode="&#xec;" horiz-adv-x="577" d="M-18 1522l198 170l334 -404l-172 -153zM129 0v1044h322v-1044h-322z" />
<glyph unicode="&#xed;" horiz-adv-x="577" d="M49 1288l334 404l197 -170l-359 -387zM129 0v1044h322v-1044h-322z" />
<glyph unicode="&#xee;" horiz-adv-x="577" d="M-41 1303l334 335l325 -331l-157 -160l-172 182l-174 -184zM129 0v1044h322v-1044h-322z" />
<glyph unicode="&#xef;" horiz-adv-x="577" d="M-78 1368q0 70 44 115t110 45q68 0 112.5 -45t44.5 -115q0 -66 -46 -110t-111 -44q-63 0 -108.5 44t-45.5 110zM129 0v1044h322v-1044h-322zM344 1368q0 70 44 115t110 45q68 0 112.5 -45t44.5 -115q0 -66 -46 -110t-111.5 -44t-109.5 44t-44 110z" />
<glyph unicode="&#xf0;" horiz-adv-x="1200" d="M86 481q0 225 116.5 356.5t352.5 131.5q147 0 225 -68q-8 125 -69 225l-131 -102l-129 160l110 88q-74 53 -196 108l135 250q182 -78 301 -168l155 125l131 -166l-135 -106q164 -215 164 -613q0 -729 -545 -729q-238 0 -361.5 137.5t-123.5 370.5zM422 489 q0 -141 40 -195t138 -54q106 0 145 65.5t39 196.5q0 117 -44 169t-144 52q-104 0 -139 -52.5t-35 -181.5z" />
<glyph unicode="&#xf1;" horiz-adv-x="1165" d="M129 0v1044h299v-159q100 186 311 186q152 0 230 -96t78 -277v-698h-324v647q0 66 -16.5 96.5t-61.5 30.5q-82 0 -138 -92t-56 -262v-420h-322zM178 1397q74 78 135.5 116.5t141.5 38.5q61 0 145 -33.5t119 -33.5q57 0 129 76l129 -162q-72 -80 -133.5 -119t-141.5 -39 q-63 0 -146 34t-120 34q-59 0 -129 -74z" />
<glyph unicode="&#xf2;" horiz-adv-x="1146" d="M86 508q0 162 32 264t109 178q131 127 355 127q219 0 342 -112q76 -70 106.5 -172.5t30.5 -257.5q0 -160 -32 -263.5t-111 -179.5q-129 -123 -353 -123q-217 0 -340 113q-78 70 -108.5 170t-30.5 256zM266 1522l199 170l334 -404l-172 -153zM416 514q0 -188 47 -240 q33 -37 106.5 -36.5t110.5 43.5q53 61 53 251q0 180 -49 238q-31 37 -102 37q-82 0 -115 -41q-51 -59 -51 -252z" />
<glyph unicode="&#xf3;" horiz-adv-x="1146" d="M86 508q0 162 32 264t109 178q131 127 355 127q219 0 342 -112q76 -70 106.5 -172.5t30.5 -257.5q0 -160 -32 -263.5t-111 -179.5q-129 -123 -353 -123q-217 0 -340 113q-78 70 -108.5 170t-30.5 256zM334 1288l334 404l196 -170l-358 -387zM416 514q0 -188 47 -240 q33 -37 106.5 -36.5t110.5 43.5q53 61 53 251q0 180 -49 238q-31 37 -102 37q-82 0 -115 -41q-51 -59 -51 -252z" />
<glyph unicode="&#xf4;" horiz-adv-x="1146" d="M86 508q0 162 32 264t109 178q131 127 355 127q219 0 342 -112q76 -70 106.5 -172.5t30.5 -257.5q0 -160 -32 -263.5t-111 -179.5q-129 -123 -353 -123q-217 0 -340 113q-78 70 -108.5 170t-30.5 256zM244 1303l334 335l325 -331l-158 -160l-172 182l-174 -184zM416 514 q0 -188 47 -240q33 -37 106.5 -36.5t110.5 43.5q53 61 53 251q0 180 -49 238q-31 37 -102 37q-82 0 -115 -41q-51 -59 -51 -252z" />
<glyph unicode="&#xf5;" horiz-adv-x="1146" d="M86 508q0 162 32 264t109 178q131 127 355 127q219 0 342 -112q76 -70 106.5 -172.5t30.5 -257.5q0 -160 -32 -263.5t-111 -179.5q-129 -123 -353 -123q-217 0 -340 113q-78 70 -108.5 170t-30.5 256zM174 1397q74 78 135.5 116.5t141.5 38.5q61 0 145 -33.5t119 -33.5 q57 0 129 76l129 -162q-72 -80 -133.5 -119t-141.5 -39q-63 0 -146 34t-120 34q-59 0 -129 -74zM416 514q0 -188 47 -240q33 -37 106.5 -36.5t110.5 43.5q53 61 53 251q0 180 -49 238q-31 37 -102 37q-82 0 -115 -41q-51 -59 -51 -252z" />
<glyph unicode="&#xf6;" horiz-adv-x="1146" d="M86 508q0 162 32 264t109 178q131 127 355 127q219 0 342 -112q76 -70 106.5 -172.5t30.5 -257.5q0 -160 -32 -263.5t-111 -179.5q-129 -123 -353 -123q-217 0 -340 113q-78 70 -108.5 170t-30.5 256zM207 1368q0 70 44 115t109.5 45t111.5 -45t46 -115q0 -66 -46 -110 t-111.5 -44t-109.5 44t-44 110zM416 514q0 -188 47 -240q33 -37 106.5 -36.5t110.5 43.5q53 61 53 251q0 180 -49 238q-31 37 -102 37q-82 0 -115 -41q-51 -59 -51 -252zM629 1368q0 70 44 115t109.5 45t111.5 -45t46 -115q0 -66 -46 -110t-111.5 -44t-109.5 44t-44 110z " />
<glyph unicode="&#xf7;" horiz-adv-x="1161" d="M125 430v250h913v-250h-913zM432 194.5q0 61.5 44 104.5t106 43q63 0 105 -42t42 -105.5t-42 -106.5t-105 -43q-61 0 -105.5 44t-44.5 105.5zM432 915.5q0 61.5 43 105.5t106.5 44t106.5 -43t43 -107q0 -61 -43 -104t-106.5 -43t-106.5 43t-43 104.5z" />
<glyph unicode="&#xf8;" horiz-adv-x="1173" d="M55 -27l123 172q-92 127 -92 359q0 289 145 434q129 133 359 133q86 0 155 -18l117 184l242 -166l-125 -172q94 -129 94 -362q0 -287 -145 -433q-131 -131 -359 -131q-86 0 -155 19l-119 -185zM422 506q0 -170 45 -223q33 -39 106 -39q84 0 119 53q45 59 45 244 q0 180 -55 231q-31 29 -94 29q-78 0 -113 -43q-53 -59 -53 -252z" />
<glyph unicode="&#xf9;" horiz-adv-x="1159" d="M129 344v700h320v-651q0 -127 79 -127q74 0 128.5 91.5t54.5 258.5v428h319v-1044h-297v160q-100 -186 -305 -187q-299 0 -299 371zM272 1522l199 170l334 -404l-172 -153z" />
<glyph unicode="&#xfa;" horiz-adv-x="1159" d="M129 344v700h320v-651q0 -127 79 -127q74 0 128.5 91.5t54.5 258.5v428h319v-1044h-297v160q-100 -186 -305 -187q-299 0 -299 371zM340 1288l334 404l196 -170l-358 -387z" />
<glyph unicode="&#xfb;" horiz-adv-x="1159" d="M129 344v700h320v-651q0 -127 79 -127q74 0 128.5 91.5t54.5 258.5v428h319v-1044h-297v160q-100 -186 -305 -187q-299 0 -299 371zM250 1303l334 335l325 -331l-157 -160l-172 182l-174 -184z" />
<glyph unicode="&#xfc;" horiz-adv-x="1159" d="M129 344v700h320v-651q0 -127 79 -127q74 0 128.5 91.5t54.5 258.5v428h319v-1044h-297v160q-100 -186 -305 -187q-299 0 -299 371zM213 1368q0 70 44 115t110 45q68 0 112.5 -45t44.5 -115q0 -66 -46 -110t-111 -44q-63 0 -108.5 44t-45.5 110zM635 1368q0 70 44 115 t109 45q68 0 113 -45t45 -115q0 -66 -46 -110t-111.5 -44t-109.5 44t-44 110z" />
<glyph unicode="&#xfd;" horiz-adv-x="1095" d="M20 1044h342l199 -802l180 802h334l-280 -983q-76 -266 -201 -402t-313 -136q-135 0 -205 49l96 260q41 -25 100 -25q78 0 124 52.5t81 179.5h-147zM307 1288l334 404l197 -170l-359 -387z" />
<glyph unicode="&#xfe;" horiz-adv-x="1183" d="M129 -471v2038h322v-639q102 143 288 143q133 0 228 -90q131 -131 131 -453q0 -324 -148 -456q-106 -96 -276 -97q-131 0 -223 74v-520h-322zM438 438q0 -96 45 -149q43 -51 129 -51t117 61t31 227q0 147 -23.5 207t-83.5 60q-74 0 -137 -86q-78 -109 -78 -269z" />
<glyph unicode="&#xff;" horiz-adv-x="1095" d="M20 1044h342l199 -802l180 802h334l-280 -983q-76 -266 -201 -402t-313 -136q-135 0 -205 49l96 260q41 -25 100 -25q78 0 124 52.5t81 179.5h-147zM180 1368q0 70 44 115t110 45q68 0 113 -45t45 -115q0 -66 -46.5 -110t-111.5 -44q-63 0 -108.5 44t-45.5 110zM602 1368 q0 70 44 115t110 45q68 0 112.5 -45t44.5 -115q0 -66 -46 -110t-111.5 -44t-109.5 44t-44 110z" />
<glyph unicode="&#x152;" horiz-adv-x="1984" d="M84 709q0 373 154 542q160 174 475 174q59 0 166.5 -6t158.5 -6h830v-280h-604q53 -92 57 -277h504v-278h-504q-4 -205 -59 -299h616v-279h-856q-68 0 -161 -7t-150 -7q-317 0 -473 174q-154 168 -154 549zM436 715q0 -82 1 -124t6.5 -98.5t15.5 -84t29.5 -59.5t48 -46 t70.5 -23.5t99.5 -9.5t100.5 10.5t72.5 23.5t49 47t30 59.5t15.5 82t6 94.5t1 115q0 92 -2 140.5t-9 108t-23.5 87t-46.5 56t-75 38t-108 9.5q-59 0 -103.5 -10.5t-75 -23.5t-50 -46t-29.5 -58.5t-15.5 -82t-6.5 -92t-1 -113.5z" />
<glyph unicode="&#x153;" horiz-adv-x="1779" d="M86 504q0 262 127 407q135 160 360 160q215 0 336 -149q119 150 342.5 149.5t330 -139.5t106.5 -361q0 -66 -9 -120l-620 -7q0 -119 32.5 -170t137.5 -51q162 0 289 113l159 -189q-172 -172 -442 -172q-227 0 -338 146q-127 -147 -346 -148q-207 0 -332 131 q-133 140 -133 400zM420 498q0 -133 27.5 -195.5t115.5 -62.5q100 0 135 76.5t35 228.5q0 137 -28.5 197.5t-118.5 60.5q-100 0 -133 -72.5t-33 -232.5zM1063 643h311q0 109 -28.5 152t-118.5 43q-92 0 -126 -45.5t-38 -149.5z" />
<glyph unicode="&#x178;" horiz-adv-x="1163" d="M-20 1413h378l222 -551l227 551h379l-445 -887v-526h-331v526zM215 1737q0 70 44 114.5t109.5 44.5t111.5 -45t46 -114q0 -66 -46 -110t-111.5 -44t-109.5 44t-44 110zM637 1737q0 70 44 114.5t109.5 44.5t111.5 -45t46 -114q0 -66 -46 -110t-111.5 -44t-109.5 44 t-44 110z" />
<glyph unicode="&#x2c6;" horiz-adv-x="409" d="M-125 1303l334 335l326 -331l-158 -160l-172 182l-174 -184z" />
<glyph unicode="&#x2dc;" horiz-adv-x="409" d="M-195 1397q74 78 135.5 116.5t141.5 38.5q61 0 145 -33.5t119 -33.5q57 0 129 76l129 -162q-72 -80 -133 -119t-141 -39q-63 0 -146.5 34t-120.5 34q-59 0 -129 -74z" />
<glyph unicode="&#x2013;" horiz-adv-x="1024" d="M29 408v294h966v-294h-966z" />
<glyph unicode="&#x2014;" horiz-adv-x="2048" d="M29 408v294h1990v-294h-1990z" />
<glyph unicode="&#x2018;" horiz-adv-x="573" d="M98 1133q0 193 207 505l199 -102q-90 -186 -109 -256q82 -45 82 -152q0 -80 -52 -134t-138 -54t-137.5 54.5t-51.5 138.5z" />
<glyph unicode="&#x2019;" horiz-adv-x="573" d="M70 987q86 170 110 256q-82 45 -82 152q0 80 51.5 134t137.5 54q88 0 138 -54t50 -138q0 -197 -205 -506z" />
<glyph unicode="&#x201a;" horiz-adv-x="571" d="M70 -227q90 180 108 250q-80 45 -80 147q0 80 51.5 134t135.5 54q86 0 137 -53t51 -137q0 -188 -205 -496z" />
<glyph unicode="&#x201c;" horiz-adv-x="1056" d="M98 1098q0 193 205 495l199 -100q-90 -180 -109 -250q80 -47 80 -149q0 -80 -51 -133.5t-137 -53.5q-84 0 -135.5 53.5t-51.5 137.5zM584 1098q0 193 204 495l199 -100q-90 -180 -108 -250q82 -49 82 -149q0 -80 -52.5 -133.5t-136.5 -53.5q-86 0 -137 53.5t-51 137.5z " />
<glyph unicode="&#x201d;" horiz-adv-x="1056" d="M70 954q90 180 108 250q-80 45 -80 150q0 80 51.5 133t135.5 53q86 0 137 -53t51 -137q0 -188 -205 -498zM557 954q92 195 107 250q-80 45 -80 150q0 80 51 133t135 53q86 0 137 -53t51 -137q0 -193 -204 -498z" />
<glyph unicode="&#x201e;" horiz-adv-x="1056" d="M70 -227q90 180 108 250q-80 45 -80 147q0 80 51.5 134t135.5 54q86 0 137 -53t51 -137q0 -188 -205 -496zM557 -227q92 195 107 250q-80 45 -80 147q0 80 51 134t135 54q86 0 137 -53t51 -137q0 -193 -204 -496z" />
<glyph unicode="&#x2022;" horiz-adv-x="784" d="M84 731q0 131 87 220t220 89t222 -89t89 -220q0 -127 -89 -218t-222 -91t-220 90t-87 219z" />
<glyph unicode="&#x2026;" horiz-adv-x="2027" d="M145 174q0 84 54.5 139.5t138.5 55.5t138 -55.5t54 -139.5t-55 -139t-137 -55t-137.5 55t-55.5 139zM821 174q0 84 54.5 139.5t138.5 55.5t139 -55.5t55 -139.5t-55 -139t-139 -55q-82 0 -137.5 56t-55.5 138zM1497 174q0 84 54.5 139.5t138.5 55.5t139 -55.5t55 -139.5 t-55 -139t-139 -55q-82 0 -137.5 56t-55.5 138z" />
<glyph unicode="&#x2039;" horiz-adv-x="735" d="M37 555l416 489l215 -165l-267 -324l267 -322l-215 -167z" />
<glyph unicode="&#x203a;" horiz-adv-x="735" d="M70 231l264 324l-264 322l213 167l417 -489l-417 -489z" />
<glyph unicode="&#x20ac;" d="M4 422l55 215h97v129h-152l55 215h121q33 162 119 266q156 186 469 187q209 0 346 -66l-82 -258q-117 55 -274 55q-117 0 -175.5 -44t-78.5 -140h487l-55 -215h-449l2 -129h412l-53 -215h-338q20 -92 72.5 -135t152.5 -43q166 0 338 106v-284q-154 -86 -352 -86 q-293 0 -438 204q-70 94 -101 238h-178z" />
<glyph unicode="&#x2122;" horiz-adv-x="1312" d="M16 1290v164h459v-164h-137v-389h-184v389h-138zM537 901l36 553h242l80 -278l80 278h242l34 -553h-178l-10 352l-88 -329h-164l-86 331l-12 -354h-176z" />
<glyph unicode="&#xe000;" horiz-adv-x="1045" d="M0 1045h1045v-1045h-1045v1045z" />
<glyph unicode="&#xfb01;" horiz-adv-x="1312" d="M61 1018h156v41q0 104 24.5 183t85 147.5t176 104.5t283.5 36q268 0 400 -100l-121 -238q-117 66 -299 65q-147 0 -188 -41.5t-41 -146.5v-51h647v-1018h-320v743h-327v-743h-320v743h-156v275z" />
<glyph unicode="&#xfb02;" horiz-adv-x="1394" d="M61 739v281h156v53q0 446 434 447q92 0 160 -23l-45 -264q-37 12 -92 12q-86 0 -110.5 -41t-24.5 -135v-49h200v-281h-200v-739h-322v739h-156zM944 0v1567h322v-1567h-322z" />
<glyph unicode="&#xfb03;" horiz-adv-x="1947" d="M61 741v265h156v49q0 446 420 446q88 0 162 -24l-43 -263q-39 12 -88 13q-90 0 -116 -40t-26 -136v-45h334v53q0 106 23.5 184t81 146.5t173 104.5t283.5 36q272 0 400 -100l-121 -238q-117 66 -299 65q-147 0 -188.5 -41.5t-41.5 -146.5v-63h648v-1006h-322v741h-326 v-741h-311v741h-334v-741h-309v741h-156z" />
<glyph unicode="&#xfb04;" horiz-adv-x="2240" d="M61 739v281h156v51q0 199 105.5 325t334.5 126q172 0 267 -62l-105 -246q-57 31 -141 31q-86 0 -113.5 -40t-27.5 -138v-47h237v-281h-237v-739h-320v739h-156zM893 739v281h156v51q0 199 105.5 325t334.5 126q172 0 266 -62l-104 -246q-57 31 -142 31q-86 0 -113.5 -40 t-27.5 -138v-47h238v-281h-238v-739h-319v739h-156zM1792 0v1567h322v-1567h-322z" />
</font>
</defs>
</svg>
